G04*
G04 #@! TF.GenerationSoftware,Altium Limited,Altium Designer,25.0.2 (28)*
G04*
G04 Layer_Physical_Order=1*
G04 Layer_Color=255*
%FSLAX44Y44*%
%MOMM*%
G71*
G04*
G04 #@! TF.SameCoordinates,3652E9EE-E87F-4F02-B139-E53364EF2805*
G04*
G04*
G04 #@! TF.FilePolarity,Positive*
G04*
G01*
G75*
%ADD11C,0.5000*%
%ADD12C,0.3000*%
%ADD13C,0.2000*%
%ADD15C,0.4000*%
%ADD17R,1.2000X0.9000*%
%ADD18R,0.9000X1.2000*%
%ADD19R,0.9000X1.3000*%
G04:AMPARAMS|DCode=20|XSize=0.7mm|YSize=1.5mm|CornerRadius=0.063mm|HoleSize=0mm|Usage=FLASHONLY|Rotation=270.000|XOffset=0mm|YOffset=0mm|HoleType=Round|Shape=RoundedRectangle|*
%AMROUNDEDRECTD20*
21,1,0.7000,1.3740,0,0,270.0*
21,1,0.5740,1.5000,0,0,270.0*
1,1,0.1260,-0.6870,-0.2870*
1,1,0.1260,-0.6870,0.2870*
1,1,0.1260,0.6870,0.2870*
1,1,0.1260,0.6870,-0.2870*
%
%ADD20ROUNDEDRECTD20*%
%ADD21R,1.3000X0.9000*%
%ADD22R,4.0000X3.3000*%
%ADD23R,2.1348X0.6249*%
%ADD24R,4.2000X1.9000*%
%ADD25R,0.8000X0.8000*%
%ADD26R,0.3000X1.9000*%
%ADD27R,1.9000X0.3000*%
%ADD28R,1.1000X0.6000*%
%ADD29R,3.5000X2.2000*%
%ADD30R,0.6000X2.2000*%
%ADD31R,0.8300X0.7000*%
%ADD34C,0.6000*%
%ADD35C,0.8000*%
%ADD36C,1.0000*%
%ADD37R,2.0000X1.6000*%
%ADD38O,2.0000X1.6000*%
%ADD39R,1.6000X2.0000*%
%ADD40O,1.6000X2.0000*%
%ADD41C,1.9000*%
%ADD42R,1.9000X1.9000*%
%ADD43R,1.8000X1.8000*%
%ADD44C,1.8000*%
%ADD45C,1.7000*%
%ADD46R,1.7000X1.7000*%
%ADD47R,1.7000X1.7000*%
%ADD48C,7.4000*%
%ADD49R,1.8000X1.6000*%
%ADD50C,1.6000*%
%ADD51C,0.6000*%
G36*
X324278Y682756D02*
X326215Y681954D01*
X326959Y681382D01*
X327199Y681264D01*
X327421Y681116D01*
X327552Y681090D01*
X327673Y681030D01*
X327939Y681013D01*
X328201Y680961D01*
X331000D01*
Y656000D01*
Y639000D01*
X308000D01*
Y680961D01*
X316199D01*
X316461Y681013D01*
X316727Y681030D01*
X316848Y681090D01*
X316980Y681116D01*
X317201Y681264D01*
X317440Y681382D01*
X318185Y681954D01*
X320122Y682756D01*
X322200Y683029D01*
X324278Y682756D01*
D02*
G37*
G36*
X87319Y697499D02*
X87961Y696603D01*
X87961Y683000D01*
X87961Y683000D01*
Y640000D01*
X88116Y639220D01*
X88558Y638558D01*
X88971Y638282D01*
X89039Y637039D01*
X89000Y637000D01*
X109000D01*
Y657000D01*
X122000D01*
Y641000D01*
X130000Y633000D01*
Y621000D01*
X3000D01*
Y697820D01*
X3127Y697873D01*
X86840D01*
X87319Y697499D01*
D02*
G37*
G36*
X587000Y614000D02*
Y576000D01*
X656000D01*
X657160Y574840D01*
Y561220D01*
X634780D01*
X634000Y562000D01*
Y543000D01*
X502000D01*
Y555000D01*
X559000D01*
X562000Y558000D01*
Y566500D01*
X568000D01*
Y589500D01*
X562000D01*
Y614000D01*
X562000Y684000D01*
X555203D01*
X553410Y684743D01*
X550800Y685086D01*
X548190Y684743D01*
X546397Y684000D01*
X529803D01*
X528010Y684743D01*
X525400Y685086D01*
X522789Y684743D01*
X520997Y684000D01*
X504403D01*
X502611Y684743D01*
X500000Y685086D01*
X497389Y684743D01*
X495597Y684000D01*
X479003D01*
X477211Y684743D01*
X474600Y685086D01*
X471990Y684743D01*
X470197Y684000D01*
X453603D01*
X451810Y684743D01*
X449200Y685086D01*
X446590Y684743D01*
X444797Y684000D01*
X428203D01*
X426410Y684743D01*
X423800Y685086D01*
X421189Y684743D01*
X419397Y684000D01*
X402803D01*
X401011Y684743D01*
X398400Y685086D01*
X395789Y684743D01*
X393997Y684000D01*
X377403D01*
X375611Y684743D01*
X373000Y685086D01*
X370390Y684743D01*
X368597Y684000D01*
X358000D01*
Y642000D01*
X337000D01*
Y685000D01*
X335250Y683000D01*
X328201D01*
X327243Y683735D01*
X324810Y684743D01*
X322200Y685086D01*
X319590Y684743D01*
X317157Y683735D01*
X316199Y683000D01*
X291000D01*
Y685000D01*
X271000D01*
Y683000D01*
X261601D01*
X260643Y683735D01*
X258211Y684743D01*
X255600Y685086D01*
X252990Y684743D01*
X250557Y683735D01*
X249599Y683000D01*
X236201D01*
X235243Y683735D01*
X232810Y684743D01*
X230200Y685086D01*
X227589Y684743D01*
X225157Y683735D01*
X224199Y683000D01*
X210801D01*
X209843Y683735D01*
X207411Y684743D01*
X204800Y685086D01*
X202190Y684743D01*
X199757Y683735D01*
X198799Y683000D01*
X185401D01*
X184443Y683735D01*
X182010Y684743D01*
X179400Y685086D01*
X176789Y684743D01*
X174357Y683735D01*
X173399Y683000D01*
X160001D01*
X159043Y683735D01*
X156610Y684743D01*
X154000Y685086D01*
X151390Y684743D01*
X148957Y683735D01*
X147999Y683000D01*
X134601D01*
X133643Y683735D01*
X131210Y684743D01*
X128600Y685086D01*
X125990Y684743D01*
X123557Y683735D01*
X122599Y683000D01*
X114000D01*
Y669000D01*
X106000Y661000D01*
Y640000D01*
X90000D01*
Y683000D01*
X90000D01*
X90000Y697000D01*
X337000D01*
Y697000D01*
X587000D01*
Y614000D01*
D02*
G37*
G36*
X696000Y546000D02*
X695586Y545000D01*
X667000D01*
Y579000D01*
X605000D01*
X592000Y592000D01*
Y697000D01*
X696000D01*
Y546000D01*
D02*
G37*
G36*
X34000Y474087D02*
Y433000D01*
X3000D01*
Y474000D01*
X33088Y474971D01*
X34000Y474087D01*
D02*
G37*
G36*
X70000Y466000D02*
Y465000D01*
X93000D01*
Y453000D01*
X76000D01*
Y451500D01*
X75000D01*
Y434500D01*
X76000D01*
Y423000D01*
X38000D01*
Y475000D01*
X61000D01*
X70000Y466000D01*
D02*
G37*
G36*
X148000Y417000D02*
X147000Y416000D01*
Y391000D01*
X139000Y383000D01*
Y382197D01*
X138961Y382000D01*
Y351000D01*
X119000D01*
Y351000D01*
X85039Y317039D01*
X66000D01*
Y339000D01*
X72000D01*
X73000Y340000D01*
Y384000D01*
X110000Y421000D01*
X148000D01*
Y417000D01*
D02*
G37*
G36*
X211000Y372000D02*
Y297000D01*
X139000Y225000D01*
X138500Y225500D01*
X125500D01*
X97000Y197000D01*
X98000Y196000D01*
Y105000D01*
X105000Y98000D01*
X148000D01*
X189000Y57000D01*
X190000Y56000D01*
X277000D01*
Y10000D01*
X279000Y12000D01*
X389352D01*
X391218Y11500D01*
X393982D01*
X395848Y12000D01*
X414752D01*
X416618Y11500D01*
X419382D01*
X421248Y12000D01*
X440152D01*
X442018Y11500D01*
X444782D01*
X446648Y12000D01*
X465552D01*
X467418Y11500D01*
X470182D01*
X472048Y12000D01*
X504000D01*
Y49000D01*
X504207Y49500D01*
X510000D01*
Y50000D01*
X525000D01*
X525500Y49500D01*
X527000D01*
Y3000D01*
X234466D01*
X234330Y3330D01*
Y6385D01*
X234506Y7582D01*
X234532Y7609D01*
X234497Y7643D01*
X234330Y8779D01*
Y44583D01*
X147004D01*
X147000Y44584D01*
Y51000D01*
X87000D01*
X72000Y66000D01*
Y192000D01*
X81000D01*
Y204116D01*
X114442Y237558D01*
X114884Y238220D01*
X115039Y239000D01*
Y265000D01*
X114884Y265780D01*
X115597Y267000D01*
X126000D01*
Y281000D01*
X121000Y286000D01*
X120000Y285000D01*
X119591D01*
X119000Y285117D01*
X118409Y285000D01*
X85884D01*
X81442Y289442D01*
X80780Y289884D01*
X80000Y290039D01*
X48000D01*
X47803Y290000D01*
X38000D01*
Y306000D01*
X32000Y312000D01*
X3000D01*
Y342000D01*
X31000D01*
Y366000D01*
X31160Y366160D01*
X69000D01*
Y344000D01*
X62000D01*
Y314840D01*
X62160Y315000D01*
X87000D01*
X119000Y347000D01*
X141000D01*
Y382000D01*
X150000Y391000D01*
Y415000D01*
X168000D01*
X211000Y372000D01*
D02*
G37*
G36*
X664000Y314000D02*
X663840Y313840D01*
X648220D01*
Y330780D01*
X640000Y339000D01*
X622000D01*
Y350000D01*
X664000D01*
Y314000D01*
D02*
G37*
G36*
X578000Y284059D02*
X555000D01*
Y289000D01*
X542000D01*
Y273000D01*
X555000D01*
Y277941D01*
X578000D01*
Y254000D01*
X582000Y250000D01*
X610000Y222000D01*
Y210000D01*
X652000D01*
X666000Y224000D01*
Y250000D01*
X669000D01*
X670000Y251000D01*
X697000D01*
Y3000D01*
X608000D01*
Y36000D01*
X514000Y130000D01*
Y137000D01*
Y202000D01*
X503000Y213000D01*
Y334000D01*
X578000D01*
Y284059D01*
D02*
G37*
G36*
X35961Y305155D02*
Y290000D01*
X36116Y289220D01*
X36558Y288558D01*
X37220Y288116D01*
X37700Y288020D01*
Y286670D01*
X44670D01*
X45000Y286533D01*
Y271000D01*
X40000D01*
Y261039D01*
X12000D01*
X11220Y260884D01*
X10558Y260442D01*
X10263Y260000D01*
X3000D01*
Y307000D01*
Y309961D01*
X31155D01*
X35961Y305155D01*
D02*
G37*
G36*
X638000Y242000D02*
X636112Y240112D01*
X621888D01*
Y251780D01*
X606220D01*
X605000Y253000D01*
Y269000D01*
X638000D01*
Y242000D01*
D02*
G37*
G36*
X75000Y258000D02*
X89000D01*
Y239000D01*
X12000D01*
Y259000D01*
X44000D01*
Y268000D01*
X65000D01*
X75000Y258000D01*
D02*
G37*
G36*
X103000Y265000D02*
X113000D01*
Y239000D01*
X77000Y203000D01*
Y196000D01*
X3000D01*
Y237000D01*
X11803D01*
X12000Y236961D01*
X89000D01*
X89197Y237000D01*
X93000D01*
Y259000D01*
X90737D01*
X90442Y259442D01*
X89780Y259884D01*
X89000Y260039D01*
X75961D01*
X66000Y270000D01*
X65197D01*
X65000Y270039D01*
X48000D01*
Y288000D01*
X80000D01*
X103000Y265000D01*
D02*
G37*
G36*
X499000Y220659D02*
X497827Y220173D01*
X476000Y242000D01*
Y279730D01*
X476000Y280000D01*
X476000Y281000D01*
X476652Y282000D01*
X499000D01*
Y220659D01*
D02*
G37*
G36*
X306000Y211000D02*
Y161000D01*
X275000D01*
X274000Y161414D01*
Y212000D01*
X305000D01*
X306000Y211000D01*
D02*
G37*
G36*
X511961Y153840D02*
X494220D01*
Y192000D01*
X511961D01*
Y153840D01*
D02*
G37*
G36*
X478000Y72000D02*
Y38000D01*
X459000D01*
Y73000D01*
X477586D01*
X478000Y72000D01*
D02*
G37*
G36*
X452000Y14039D02*
X446648D01*
X446387Y13987D01*
X446120Y13970D01*
X444514Y13539D01*
X442286D01*
X440680Y13970D01*
X440413Y13987D01*
X440152Y14039D01*
X421248D01*
X420987Y13987D01*
X420720Y13970D01*
X419114Y13539D01*
X416886D01*
X415280Y13970D01*
X415013Y13987D01*
X414752Y14039D01*
X409000D01*
Y32000D01*
X452000D01*
Y14039D01*
D02*
G37*
G36*
X553000Y60000D02*
Y3000D01*
X530000D01*
X529039Y4779D01*
Y49500D01*
X528884Y50280D01*
X528442Y50942D01*
X527780Y51384D01*
X527000Y51539D01*
X526500D01*
Y52000D01*
X525197D01*
X525000Y52039D01*
X510000D01*
X509803Y52000D01*
X509500D01*
Y51940D01*
X509220Y51884D01*
X508704Y51539D01*
X504207D01*
D01*
X504207D01*
X503829Y51464D01*
X503000Y53000D01*
Y91000D01*
X522000D01*
X553000Y60000D01*
D02*
G37*
G36*
X68000Y67000D02*
X88000Y47000D01*
X123000D01*
Y3000D01*
X3000D01*
Y90000D01*
X68000D01*
Y67000D01*
D02*
G37*
%LPC*%
G36*
X114000Y418039D02*
X113220Y417884D01*
X112558Y417442D01*
X112558Y417442D01*
X111558Y416442D01*
X111116Y415780D01*
X110961Y415000D01*
Y386039D01*
X104600D01*
X103820Y385884D01*
X103158Y385442D01*
X102716Y384780D01*
X102561Y384000D01*
Y359493D01*
X102716Y358713D01*
X103158Y358051D01*
X103820Y357609D01*
X104600Y357454D01*
X126498D01*
X127278Y357609D01*
X127359Y357643D01*
X127359Y357643D01*
X128020Y358085D01*
X128462Y358746D01*
X128617Y359527D01*
Y381896D01*
X128827Y383134D01*
X129607Y383289D01*
X129607Y383289D01*
X130780Y383775D01*
X130780Y383775D01*
X131442Y384217D01*
X131884Y384879D01*
X132039Y385659D01*
Y416000D01*
X131884Y416780D01*
X131442Y417442D01*
X130780Y417884D01*
X130000Y418039D01*
X114000D01*
X114000Y418039D01*
D02*
G37*
%LPD*%
G36*
X130000Y385659D02*
X128827Y385173D01*
X127848Y386152D01*
X127848Y386152D01*
X127500Y386500D01*
X126578Y386500D01*
Y385659D01*
X126578Y385659D01*
Y359527D01*
X126498Y359493D01*
X104600D01*
Y384000D01*
X112160D01*
X113000Y384840D01*
Y415000D01*
X114000Y416000D01*
X130000D01*
Y385659D01*
D02*
G37*
%LPC*%
G36*
X154500Y322000D02*
X115500D01*
Y296000D01*
X154500D01*
Y299883D01*
X179000D01*
X181341Y300348D01*
X183326Y301674D01*
X184652Y303659D01*
X185117Y306000D01*
X184652Y308341D01*
X183326Y310326D01*
X181341Y311652D01*
X179000Y312118D01*
X154500D01*
Y322000D01*
D02*
G37*
G36*
X522500Y293000D02*
X507500D01*
Y283000D01*
Y273500D01*
X521000D01*
Y273000D01*
X525441D01*
Y267500D01*
X522000D01*
Y250500D01*
X535000D01*
Y267500D01*
X531559D01*
Y273000D01*
X534000D01*
Y289000D01*
X522500D01*
Y293000D01*
D02*
G37*
G36*
X574951Y219951D02*
X561951D01*
Y203951D01*
X574951D01*
Y208892D01*
X579000D01*
Y202000D01*
X589394D01*
X589837Y201337D01*
X600941Y190233D01*
Y182000D01*
X593000D01*
Y164326D01*
X590733Y162059D01*
X553267D01*
X550013Y165313D01*
X549021Y165976D01*
X547850Y166209D01*
X547850Y166209D01*
X545048D01*
X544150Y167107D01*
X544150Y168227D01*
X545221Y168882D01*
X546011Y168337D01*
X547003Y167674D01*
X548173Y167441D01*
X556000D01*
Y164000D01*
X572000D01*
Y177000D01*
X567059D01*
Y181500D01*
X574000D01*
Y198500D01*
X561000D01*
Y186796D01*
X560941Y186500D01*
X560941Y186500D01*
Y177000D01*
X556000D01*
Y173559D01*
X549440D01*
X541662Y181337D01*
X539500Y183500D01*
X538507Y184163D01*
X537337Y184396D01*
D01*
X536500Y185248D01*
Y195500D01*
Y196000D01*
X521500D01*
Y186000D01*
Y176500D01*
X536500D01*
Y176500D01*
X537453Y176895D01*
X544624Y169724D01*
X543902Y168650D01*
X542983Y168650D01*
X531850D01*
Y157650D01*
X544150D01*
Y160091D01*
X546583D01*
X549837Y156837D01*
X549837Y156837D01*
X550830Y156174D01*
X552000Y155941D01*
X552000Y155941D01*
X556000D01*
Y148039D01*
X532000D01*
X531220Y147884D01*
X530558Y147442D01*
X530116Y146780D01*
X529961Y146000D01*
Y134000D01*
X529961Y134000D01*
X530116Y133220D01*
X530558Y132558D01*
X530558Y132558D01*
X530961Y132155D01*
Y132000D01*
X530961Y132000D01*
X531116Y131220D01*
X531558Y130558D01*
X531558Y130558D01*
X556000Y106116D01*
Y106000D01*
X556116D01*
X557558Y104558D01*
X558220Y104116D01*
X559000Y103961D01*
X669000D01*
X669780Y104116D01*
X670442Y104558D01*
X670884Y105220D01*
X671039Y106000D01*
X671039Y134000D01*
X670884Y134780D01*
X670442Y135442D01*
X669780Y135884D01*
X669000Y136039D01*
X606065D01*
X605987Y136328D01*
X605866Y137309D01*
X607802Y139246D01*
X609250Y141754D01*
X610000Y144552D01*
Y147448D01*
X609250Y150246D01*
X607802Y152754D01*
X605754Y154802D01*
X603246Y156250D01*
X600448Y157000D01*
X597552D01*
X595598Y156477D01*
X594941Y157615D01*
X597326Y160000D01*
X615000D01*
Y167941D01*
X643432D01*
X643750Y166754D01*
X645198Y164246D01*
X647246Y162198D01*
X649754Y160750D01*
X652552Y160000D01*
X655448D01*
X658246Y160750D01*
X660754Y162198D01*
X662802Y164246D01*
X664250Y166754D01*
X665000Y169552D01*
Y172448D01*
X664250Y175246D01*
X662802Y177754D01*
X660754Y179802D01*
X658246Y181250D01*
X655448Y182000D01*
X652552D01*
X649754Y181250D01*
X647246Y179802D01*
X645198Y177754D01*
X643750Y175246D01*
X643432Y174059D01*
X615000D01*
Y182000D01*
X607059D01*
Y191500D01*
X606826Y192670D01*
X606163Y193663D01*
X606163Y193663D01*
X595059Y204767D01*
Y205000D01*
X595059Y205000D01*
X595000Y205296D01*
Y215000D01*
X583599D01*
X583549Y215010D01*
X583549Y215010D01*
X574951D01*
Y219951D01*
D02*
G37*
%LPD*%
G36*
X556000Y143000D02*
X567515D01*
X568001Y141827D01*
X566837Y140663D01*
X566394Y140000D01*
X556000D01*
Y127000D01*
X572000D01*
Y136704D01*
X572059Y137000D01*
X572059Y137000D01*
Y137233D01*
X573913Y139087D01*
X579000Y134000D01*
X669000D01*
X669000Y106000D01*
X559000D01*
X533000Y132000D01*
Y133000D01*
X532000Y134000D01*
Y146000D01*
X556000D01*
Y143000D01*
D02*
G37*
%LPC*%
G36*
X62500Y232000D02*
X45500D01*
Y219000D01*
X47882D01*
Y214000D01*
X48348Y211659D01*
X49674Y209674D01*
X51659Y208348D01*
X54000Y207882D01*
X56341Y208348D01*
X58326Y209674D01*
X59652Y211659D01*
X60118Y214000D01*
Y219000D01*
X62500D01*
Y232000D01*
D02*
G37*
%LPD*%
D11*
X241143Y208350D02*
Y221050D01*
Y195650D02*
Y208350D01*
Y182950D02*
Y195650D01*
X215830Y160082D02*
X229830Y174083D01*
Y177582D01*
X232969Y180722D02*
Y182325D01*
X233594Y182950D01*
X212330Y160082D02*
X215830D01*
X229830Y177582D02*
X232969Y180722D01*
X233594Y182950D02*
X241143D01*
X21300Y396023D02*
X23500Y393823D01*
X21300Y396023D02*
Y399000D01*
X23500Y359000D02*
Y393823D01*
D12*
X314552Y461001D02*
X329999D01*
X381001D02*
X398551D01*
X286999Y456001D02*
X314552D01*
X428001D02*
X430000Y458000D01*
X398551Y456001D02*
X428001D01*
D13*
X564000Y133500D02*
X565500D01*
X569000Y137000D02*
Y138500D01*
X565500Y133500D02*
X569000Y137000D01*
X576500Y146000D02*
X599000D01*
X569000Y138500D02*
X576500Y146000D01*
X564000Y159000D02*
X592000D01*
X552000D02*
X564000D01*
Y149500D02*
Y159000D01*
X568451Y211951D02*
X583549D01*
X587000Y208500D01*
X592000Y203500D02*
Y205000D01*
X588500Y208500D02*
X592000Y205000D01*
X587000Y208500D02*
X588500D01*
X604000Y171000D02*
Y191500D01*
X592000Y203500D02*
X604000Y191500D01*
Y171000D02*
X654000D01*
X592000Y159000D02*
X604000Y171000D01*
X547850Y163150D02*
X552000Y159000D01*
X538000Y163150D02*
X547850D01*
X529000Y181500D02*
Y191000D01*
Y181500D02*
X529163Y181337D01*
X537337D01*
X548173Y170500D01*
X564000D01*
Y186500D02*
X567500Y190000D01*
X564000Y170500D02*
Y186500D01*
X667682Y428000D02*
X671982Y423700D01*
X398551Y481001D02*
X409501D01*
X398551Y471001D02*
X415001D01*
X398551Y476001D02*
X411572D01*
X344052Y500501D02*
Y551949D01*
X329052Y500501D02*
Y527948D01*
X339052Y500501D02*
Y538949D01*
X334052Y500501D02*
Y531948D01*
X374052Y500501D02*
Y525051D01*
X369052Y500501D02*
Y536051D01*
X359052Y500501D02*
Y558051D01*
X364052Y500501D02*
Y549052D01*
X38400Y503700D02*
X63800D01*
X75500Y492000D01*
X130500D01*
X25000Y517100D02*
X38400Y503700D01*
X50400Y491700D02*
X70100Y472000D01*
X359052Y558051D02*
X399000Y598000D01*
X391000Y389000D02*
X438000Y342000D01*
X384000Y389000D02*
X391000D01*
X374052Y398949D02*
X384000Y389000D01*
X385852Y398750D02*
X395751D01*
X454000Y340501D01*
X379052Y405551D02*
Y416501D01*
Y405551D02*
X385852Y398750D01*
X374052Y398949D02*
Y416501D01*
X384052Y417000D02*
X393850D01*
X499000Y202000D02*
Y204500D01*
X500500Y200500D02*
X503000D01*
X499000Y202000D02*
X500500Y200500D01*
X384052Y416501D02*
Y417000D01*
X292000Y240500D02*
X292857Y239643D01*
Y221050D02*
Y239643D01*
X339052Y396051D02*
Y416501D01*
X349052Y373776D02*
Y416501D01*
X330000Y312000D02*
X342500Y324500D01*
Y367225D02*
X349052Y373776D01*
X342500Y324500D02*
Y367225D01*
X344052Y386000D02*
Y416501D01*
X328026Y369974D02*
X344052Y386000D01*
X328026Y332097D02*
Y369974D01*
X326000Y394000D02*
X334052Y402052D01*
Y416501D01*
X354052Y371949D02*
Y416501D01*
X365000Y309000D02*
X371000Y315000D01*
X479250Y297750D02*
X488750D01*
X489000Y297500D01*
X479000Y298000D02*
X479250Y297750D01*
X364052Y385141D02*
Y416501D01*
X424000Y298000D02*
Y325192D01*
X364052Y385141D02*
X424000Y325192D01*
X354052Y371949D02*
X410000Y316000D01*
X468800Y22000D02*
X494000Y47200D01*
X528500Y259000D02*
Y280000D01*
X527500Y281000D02*
X528500Y280000D01*
X628000Y324500D02*
X629500D01*
X632500Y321500D01*
Y320000D02*
Y321500D01*
Y320000D02*
X648457Y304043D01*
Y295943D02*
Y304043D01*
Y295943D02*
X651600Y292800D01*
X329052Y416000D02*
Y416501D01*
X314552Y486001D02*
X316000D01*
X651600Y242000D02*
X677000Y267400D01*
X669000Y354000D02*
X675500Y347500D01*
X677500D01*
X669000Y354000D02*
Y356000D01*
X665000Y360000D02*
X669000Y356000D01*
X671982Y423700D02*
X677500D01*
X131000Y157000D02*
Y196808D01*
X143000Y189000D02*
X236000Y282000D01*
X143000Y146000D02*
Y189000D01*
X155000Y183000D02*
X251000Y279000D01*
X155000Y140000D02*
Y183000D01*
X125000Y151000D02*
X131000Y157000D01*
X115000Y149650D02*
X116350Y151000D01*
X125000D01*
X115000Y136950D02*
X133950D01*
X143000Y146000D01*
X115000Y124250D02*
X139250D01*
X155000Y140000D01*
X115000Y111550D02*
X146550D01*
X169000Y134000D02*
Y179000D01*
X146550Y111550D02*
X169000Y134000D01*
X50400Y517100D02*
X246000D01*
Y517000D02*
X249001D01*
X53000Y529000D02*
X254000D01*
X290000Y493000D01*
X298766Y478766D02*
X301531Y476001D01*
X290000Y487532D02*
Y493000D01*
X298766Y478766D02*
X298766Y478766D01*
X290000Y487532D02*
X298766Y478766D01*
X300301Y484301D02*
Y498699D01*
X256500Y542500D02*
X300301Y498699D01*
X8000Y508700D02*
Y547450D01*
Y508700D02*
X25000Y491700D01*
X52900Y529100D02*
X53000Y529000D01*
X32000Y535000D02*
Y535500D01*
X26500Y541000D02*
X32000Y535500D01*
X26000Y541000D02*
X26500D01*
X32000Y535000D02*
X37900Y529100D01*
X52900D01*
X314552Y481001D02*
X316000D01*
X303602D02*
X314552D01*
X50400Y542500D02*
X256500D01*
X300301Y484301D02*
X303602Y481001D01*
X301531Y476001D02*
X314552D01*
X323000Y416000D02*
X329052D01*
X373000Y41600D02*
X392600Y22000D01*
X365000Y154000D02*
X373000Y146000D01*
Y41600D02*
Y146000D01*
X347400Y23000D02*
Y309400D01*
X330000Y146000D02*
Y312000D01*
X322000Y23000D02*
Y138000D01*
X330000Y146000D01*
X296600Y23000D02*
Y138600D01*
X312000Y154000D01*
X365000D02*
Y309000D01*
X379000Y173000D02*
Y304000D01*
Y173000D02*
X402000Y150000D01*
Y56800D02*
Y150000D01*
X392600Y47400D02*
X402000Y56800D01*
X394000Y189000D02*
X418000Y165000D01*
X353574Y348426D02*
X394000Y308000D01*
Y189000D02*
Y308000D01*
X418000Y47400D02*
Y165000D01*
X410000Y199000D02*
Y316000D01*
X435000Y120000D02*
Y174000D01*
X410000Y199000D02*
X435000Y174000D01*
X276000Y388000D02*
Y415470D01*
X236000Y282000D02*
Y348000D01*
X276000Y388000D01*
X251000Y279000D02*
Y341000D01*
X292000Y382000D02*
Y424399D01*
X251000Y341000D02*
X292000Y382000D01*
X364052Y549052D02*
X393750Y578750D01*
X369052Y536051D02*
X397500Y564500D01*
X374052Y525051D02*
X399500Y550500D01*
X379052Y511451D02*
X407351Y539750D01*
X379052Y500501D02*
Y511451D01*
X449000Y672800D02*
X449200Y673000D01*
X423800D02*
X426000Y670800D01*
X399000Y598000D02*
Y672400D01*
X398400Y673000D02*
X399000Y672400D01*
X373000Y673000D02*
X374000Y672000D01*
X292000Y261500D02*
Y319000D01*
X311000Y338000D01*
Y368000D01*
X312000Y154000D02*
Y316071D01*
X328026Y332097D01*
X651600Y267400D02*
X677000Y292800D01*
X624150Y224850D02*
X627000D01*
X629000Y222850D01*
X609500Y239500D02*
X624150Y224850D01*
X276000Y415470D02*
X301531Y441001D01*
X292000Y424399D02*
X303602Y436001D01*
X294000Y446000D02*
X298521D01*
X298522Y446001D02*
X314552D01*
X298521Y446000D02*
X298522Y446001D01*
X303602Y436001D02*
X314552D01*
X301531Y441001D02*
X314552D01*
X131000Y196808D02*
X221000Y286808D01*
X409501Y436001D02*
X414500Y431002D01*
X398551Y436001D02*
X409501D01*
X398551Y441001D02*
X415999D01*
X398551Y446001D02*
X418070D01*
X398551Y451001D02*
X420141D01*
X621000Y474500D02*
X677500D01*
X398551Y466001D02*
X417072D01*
X609000Y360000D02*
X665000D01*
X605000Y356000D02*
X609000Y360000D01*
X582388Y342388D02*
X600276Y324500D01*
X628000D01*
X605500Y284500D02*
X609500Y288500D01*
X599000Y278000D02*
X605500Y284500D01*
X609500Y288500D02*
Y304500D01*
X599000Y250000D02*
Y278000D01*
X548500Y281000D02*
X596000D01*
X599000Y278000D01*
X605500Y284500D02*
X629000D01*
X599000Y250000D02*
X609500Y239500D01*
X594400Y23000D02*
Y38000D01*
X486000Y146400D02*
Y197000D01*
Y146400D02*
X594400Y38000D01*
X469000Y149000D02*
Y193000D01*
X569000Y23000D02*
Y49000D01*
X469000Y149000D02*
X569000Y49000D01*
X443400Y66900D02*
X445000Y68500D01*
X443400Y47400D02*
Y66900D01*
X347400Y309400D02*
X359000Y321000D01*
Y326995D01*
X353574Y348426D02*
Y351426D01*
X353000Y352000D02*
X353574Y351426D01*
X70100Y472000D02*
X156000D01*
X276135Y438500D02*
X288635Y451000D01*
X202000Y426000D02*
X250000D01*
X262500Y438500D01*
X276135D01*
X156000Y472000D02*
X202000Y426000D01*
X46700Y399000D02*
X80000D01*
X107000Y426000D01*
X178000D01*
X211000Y393000D01*
X241000D01*
X470000Y233500D02*
X499000Y204500D01*
X393850Y417000D02*
X470000Y340850D01*
Y233500D02*
Y340850D01*
X454000Y229000D02*
X486000Y197000D01*
X314552Y387000D02*
Y431001D01*
X265000Y275000D02*
Y337448D01*
X314552Y387000D01*
X169000Y179000D02*
X265000Y275000D01*
X311000Y368000D02*
X339052Y396051D01*
X260500Y412500D02*
X294000Y446000D01*
X258001Y492000D02*
X284000Y466001D01*
X151500Y492000D02*
X258001D01*
X284000Y466001D02*
X314552D01*
Y471001D02*
X318000D01*
X249001Y517000D02*
X295000Y471001D01*
X314552D01*
X296450Y451000D02*
X296451Y451001D01*
X314552D01*
X288635Y451000D02*
X296450D01*
X221000Y286808D02*
Y351000D01*
X260500Y390500D02*
Y412500D01*
X221000Y351000D02*
X260500Y390500D01*
X411750Y578750D02*
X426000Y593000D01*
X449000Y590000D02*
Y672800D01*
X397500Y564500D02*
X423500D01*
X449000Y590000D01*
X474600Y599400D02*
Y673000D01*
X399500Y550500D02*
X428500D01*
X474757Y596757D01*
Y599243D01*
X474600Y599400D02*
X474757Y599243D01*
X525400Y628400D02*
Y673000D01*
X436750Y539750D02*
X525400Y628400D01*
X407351Y539750D02*
X436750D01*
X677400Y449000D02*
X677500Y449100D01*
X619000Y449000D02*
X677400D01*
X590000Y478000D02*
X619000Y449000D01*
X532000Y478000D02*
X590000D01*
X436000Y477000D02*
X451000Y492000D01*
X518000D01*
X428071Y477000D02*
X436000D01*
X417072Y466001D02*
X428071Y477000D01*
X415001Y471001D02*
X450000Y506000D01*
X537000D01*
X444000Y514000D02*
X560000D01*
X426786Y496786D02*
X444000Y514000D01*
X411572Y476001D02*
X426786Y491214D01*
Y496786D01*
X444000Y530000D02*
X583000D01*
X409501Y481001D02*
X418250Y489750D01*
Y504250D02*
X444000Y530000D01*
X418250Y489750D02*
Y504250D01*
X677200Y525000D02*
X677500Y525300D01*
X588000Y525000D02*
X677200D01*
X583000Y530000D02*
X588000Y525000D01*
X560000Y514000D02*
X569000Y505000D01*
X667243D02*
X672343Y499900D01*
X569000Y505000D02*
X667243D01*
X672343Y499900D02*
X677500D01*
X553000Y490000D02*
X605500D01*
X621000Y474500D01*
X537000Y506000D02*
X553000Y490000D01*
X518000Y492000D02*
X532000Y478000D01*
X449000Y428000D02*
X667682D01*
X420141Y451001D02*
X427571Y443571D01*
X433429D02*
X449000Y428000D01*
X427571Y443571D02*
X433429D01*
X445036Y416000D02*
X659800D01*
X430000Y431035D02*
X445036Y416000D01*
X418070Y446001D02*
X430000Y434071D01*
Y431035D02*
Y434071D01*
X659800Y416000D02*
X677500Y398300D01*
X422000Y428000D02*
X453000Y397000D01*
X653400D01*
X677500Y372900D01*
X422000Y428000D02*
Y435000D01*
X415999Y441001D02*
X422000Y435000D01*
X482612Y342388D02*
X582388D01*
X402794Y426758D02*
Y431001D01*
X403000Y422000D02*
X482612Y342388D01*
X402794Y426758D02*
X403000Y426553D01*
Y422000D02*
Y426553D01*
X398551Y431001D02*
X402794D01*
X482000Y356000D02*
X605000D01*
X414500Y423500D02*
X482000Y356000D01*
X414500Y423500D02*
Y431002D01*
X203000Y581000D02*
X253000D01*
X128600Y655400D02*
Y673000D01*
Y655400D02*
X203000Y581000D01*
X253000D02*
X263000Y571000D01*
Y555000D02*
Y571000D01*
Y555000D02*
X307000Y511000D01*
X19463Y558913D02*
X243579D01*
X8000Y547450D02*
X19463Y558913D01*
X337000Y559000D02*
X344052Y551949D01*
X283000Y554000D02*
Y567000D01*
Y554000D02*
X316000Y521000D01*
Y486001D02*
Y521000D01*
X238000Y612000D02*
X283000Y567000D01*
X204800Y673000D02*
X207239Y670561D01*
Y661761D02*
X302000Y567000D01*
X207239Y661761D02*
Y670561D01*
X302000Y555000D02*
Y567000D01*
Y555000D02*
X329052Y527948D01*
X230200Y657000D02*
X315000Y572200D01*
Y551000D02*
X334052Y531948D01*
X315000Y551000D02*
Y572200D01*
X326500Y551500D02*
X339052Y538949D01*
X255600Y648000D02*
X326500Y577100D01*
Y551500D02*
Y577100D01*
X281000Y640000D02*
X349052Y571949D01*
Y500501D02*
Y571949D01*
X179400Y638600D02*
X206000Y612000D01*
X179400Y638600D02*
Y673000D01*
X206000Y612000D02*
X238000D01*
X230200Y657000D02*
Y673000D01*
X255600Y648000D02*
Y673000D01*
X281000Y640000D02*
Y673000D01*
X374000Y607000D02*
Y672000D01*
X354052Y500501D02*
Y587052D01*
X374000Y607000D01*
X426000Y593000D02*
Y670800D01*
X393750Y578750D02*
X411750D01*
X435000Y120000D02*
X445000Y110000D01*
Y89500D02*
Y110000D01*
X425000Y212000D02*
Y298000D01*
X453000Y138000D02*
Y184000D01*
X494000Y47200D02*
Y97000D01*
X425000Y212000D02*
X453000Y184000D01*
Y138000D02*
X494000Y97000D01*
X438000Y224000D02*
Y342000D01*
Y224000D02*
X469000Y193000D01*
X454000Y229000D02*
Y340501D01*
X359052Y377948D02*
X366000Y371000D01*
X359052Y377948D02*
Y416501D01*
X369052Y392948D02*
X383000Y379000D01*
X369052Y392948D02*
Y416501D01*
X384052Y500000D02*
X396000D01*
X384052D02*
Y500501D01*
X398551Y486001D02*
X403243D01*
Y490243D01*
X408000Y495000D01*
D15*
X21000Y399000D02*
Y401000D01*
Y356500D02*
Y359000D01*
X53500Y109043D02*
Y110050D01*
X55000Y111550D01*
X59000D01*
X25000Y106700D02*
X51157D01*
X53500Y109043D01*
X488000Y569500D02*
X508000D01*
X545000Y662657D02*
X550800Y668457D01*
Y673000D01*
X545000Y578000D02*
Y662657D01*
X20500Y356000D02*
X21000Y356500D01*
X137000Y40500D02*
X197912D01*
X212330Y26082D01*
X525000Y278500D02*
X527500Y281000D01*
X515000Y278500D02*
X525000D01*
X515000D02*
Y288000D01*
X25000Y182900D02*
X28949Y178951D01*
Y173050D02*
Y178951D01*
X50850Y151150D02*
X57500D01*
X28949Y173050D02*
X50850Y151150D01*
X57500D02*
X59000Y149650D01*
X25000Y157500D02*
X45550Y136950D01*
X59000D01*
X35343Y124250D02*
X59000D01*
X27493Y132100D02*
X35343Y124250D01*
X25000Y132100D02*
X27493D01*
D17*
X564000Y112500D02*
D03*
Y133500D02*
D03*
Y170500D02*
D03*
Y149500D02*
D03*
X587000Y208500D02*
D03*
Y229500D02*
D03*
X137000Y40500D02*
D03*
Y61500D02*
D03*
X292000Y261500D02*
D03*
Y240500D02*
D03*
X508000Y548500D02*
D03*
Y569500D02*
D03*
X629000Y284500D02*
D03*
Y263500D02*
D03*
X445000Y68500D02*
D03*
Y89500D02*
D03*
X628000Y345500D02*
D03*
Y324500D02*
D03*
X54000Y283500D02*
D03*
Y304500D02*
D03*
Y262500D02*
D03*
Y283500D02*
D03*
D18*
X547451Y211951D02*
D03*
X568451D02*
D03*
X151500Y492000D02*
D03*
X130500D02*
D03*
X548500Y281000D02*
D03*
X527500D02*
D03*
X23500Y359000D02*
D03*
X44500D02*
D03*
D19*
X567500Y190000D02*
D03*
X548500D02*
D03*
X467000Y454000D02*
D03*
X486000D02*
D03*
X233500Y473000D02*
D03*
X214500D02*
D03*
X547500Y259000D02*
D03*
X528500D02*
D03*
X502500Y164000D02*
D03*
X521500D02*
D03*
X510500Y260000D02*
D03*
X491500D02*
D03*
X326250Y648750D02*
D03*
X345250D02*
D03*
X96500Y648000D02*
D03*
X115500D02*
D03*
X596500Y622000D02*
D03*
X577500D02*
D03*
X430000Y458000D02*
D03*
X449000D02*
D03*
X466500Y477000D02*
D03*
X485500D02*
D03*
X81500Y443000D02*
D03*
X62500D02*
D03*
X27500D02*
D03*
X46500D02*
D03*
X269750Y456000D02*
D03*
X250750D02*
D03*
X233500Y451000D02*
D03*
X214500D02*
D03*
X82000Y359000D02*
D03*
X63000D02*
D03*
X656500Y324000D02*
D03*
X675500D02*
D03*
X103500Y395000D02*
D03*
X122500D02*
D03*
X138500D02*
D03*
X157500D02*
D03*
X71500Y325000D02*
D03*
X52500D02*
D03*
D20*
X59000Y200450D02*
D03*
Y187750D02*
D03*
Y175050D02*
D03*
Y162350D02*
D03*
Y149650D02*
D03*
Y136950D02*
D03*
Y124250D02*
D03*
Y111550D02*
D03*
X115000Y200450D02*
D03*
Y187750D02*
D03*
Y162350D02*
D03*
Y149650D02*
D03*
Y136950D02*
D03*
Y124250D02*
D03*
Y111550D02*
D03*
Y175050D02*
D03*
D21*
X114000Y41500D02*
D03*
Y60500D02*
D03*
X647000Y588500D02*
D03*
Y569500D02*
D03*
X470000Y87500D02*
D03*
Y68500D02*
D03*
X106000Y278500D02*
D03*
Y259500D02*
D03*
X518000Y64500D02*
D03*
Y45500D02*
D03*
X54000Y225500D02*
D03*
Y244500D02*
D03*
D22*
X212330Y160082D02*
D03*
Y26082D02*
D03*
D23*
X241143Y182950D02*
D03*
Y195650D02*
D03*
Y208350D02*
D03*
Y221050D02*
D03*
X292857D02*
D03*
Y208350D02*
D03*
Y195650D02*
D03*
Y182950D02*
D03*
D24*
X545000Y578000D02*
D03*
X613000Y603400D02*
D03*
Y552600D02*
D03*
D25*
X488000Y569500D02*
D03*
Y552500D02*
D03*
D26*
X384052Y500501D02*
D03*
X349052D02*
D03*
X374052D02*
D03*
X359052D02*
D03*
X344052D02*
D03*
X354052D02*
D03*
X369052D02*
D03*
X379052D02*
D03*
X339052D02*
D03*
X364052D02*
D03*
X339052Y416501D02*
D03*
X354052D02*
D03*
X349052D02*
D03*
X359052D02*
D03*
X374052D02*
D03*
X379052D02*
D03*
X369052D02*
D03*
X364052D02*
D03*
X384052D02*
D03*
X344052D02*
D03*
X334052Y500501D02*
D03*
X329052D02*
D03*
X334052Y416501D02*
D03*
X329052D02*
D03*
D27*
X398551Y486001D02*
D03*
Y446001D02*
D03*
Y476001D02*
D03*
Y481001D02*
D03*
Y466001D02*
D03*
Y456001D02*
D03*
Y461001D02*
D03*
Y471001D02*
D03*
Y441001D02*
D03*
Y436001D02*
D03*
X314552Y441001D02*
D03*
Y446001D02*
D03*
Y481001D02*
D03*
Y471001D02*
D03*
Y461001D02*
D03*
Y436001D02*
D03*
Y431001D02*
D03*
Y486001D02*
D03*
Y466001D02*
D03*
Y451001D02*
D03*
Y456001D02*
D03*
Y476001D02*
D03*
X398551Y451001D02*
D03*
Y431001D02*
D03*
D28*
X503000Y200500D02*
D03*
Y181500D02*
D03*
X529000Y200500D02*
D03*
Y191000D02*
D03*
Y181500D02*
D03*
X515000Y278500D02*
D03*
Y288000D02*
D03*
Y297500D02*
D03*
X489000Y278500D02*
D03*
Y297500D02*
D03*
D29*
X135000Y309000D02*
D03*
D30*
X109600Y371000D02*
D03*
X122300D02*
D03*
X135000D02*
D03*
X147700D02*
D03*
X160400D02*
D03*
D31*
X538000Y140850D02*
D03*
Y163150D02*
D03*
X629000Y222850D02*
D03*
Y245150D02*
D03*
D34*
X119500Y200950D02*
Y204500D01*
X131000Y216000D01*
X487500Y552000D02*
X488000Y552500D01*
X476000Y552000D02*
X487500D01*
X250011Y445011D02*
Y455261D01*
X250750Y456000D01*
X250000Y445000D02*
X250011Y445011D01*
X216000Y444000D02*
X225000Y435000D01*
X214500Y451000D02*
X216000Y449500D01*
Y444000D02*
Y449500D01*
X115000Y200450D02*
X119000D01*
X119500Y200950D01*
X197000Y455000D02*
X211500Y469500D01*
X213000D01*
X214500Y471000D01*
Y473000D01*
D35*
X267752Y458000D02*
X285000D01*
X485500Y477000D02*
X498459D01*
X498959Y477500D01*
X449000Y444000D02*
Y458000D01*
X675500Y324000D02*
X691000D01*
X470000Y87500D02*
Y99000D01*
X137000Y443000D02*
X148000D01*
X81500D02*
X137000D01*
X170000Y306000D02*
X179000D01*
X162000D02*
X170000D01*
X138000D02*
X162000D01*
X54000Y214000D02*
Y225500D01*
X106000Y278500D02*
X118500D01*
X119000Y279000D01*
X135000Y309000D02*
X138000Y306000D01*
X466500Y456500D02*
Y477000D01*
Y456500D02*
X467000Y456000D01*
Y454000D02*
Y456000D01*
X430000Y460000D02*
X430500Y460500D01*
X432500D01*
X438500Y466500D01*
Y466985D01*
X448515Y477000D01*
X430000Y458000D02*
Y460000D01*
X448515Y477000D02*
X466500D01*
X261250Y464502D02*
X267752Y458000D01*
X233500Y473000D02*
X253235D01*
X261250Y464985D01*
Y464502D02*
Y464985D01*
X233500Y451000D02*
Y473000D01*
D36*
X587000Y454000D02*
X602000Y439000D01*
X486000Y454000D02*
X587000D01*
D37*
X677500Y347500D02*
D03*
X25000Y324800D02*
D03*
Y106700D02*
D03*
D38*
X677500Y372900D02*
D03*
Y398300D02*
D03*
Y423700D02*
D03*
Y449100D02*
D03*
Y474500D02*
D03*
Y499900D02*
D03*
Y525300D02*
D03*
X25000Y299400D02*
D03*
Y274000D02*
D03*
Y248600D02*
D03*
Y132100D02*
D03*
Y157500D02*
D03*
Y182900D02*
D03*
Y208300D02*
D03*
D39*
X281000Y673000D02*
D03*
X518200Y23000D02*
D03*
X601600Y673000D02*
D03*
D40*
X255600Y673000D02*
D03*
X230200D02*
D03*
X204800D02*
D03*
X179400D02*
D03*
X154000D02*
D03*
X128600D02*
D03*
X103200D02*
D03*
X594400Y23000D02*
D03*
X569000D02*
D03*
X543600D02*
D03*
X576200Y673000D02*
D03*
X550800D02*
D03*
X525400D02*
D03*
X500000D02*
D03*
X474600D02*
D03*
X449200D02*
D03*
X423800D02*
D03*
X398400D02*
D03*
X373000D02*
D03*
X322200D02*
D03*
X347600D02*
D03*
D41*
X564500Y239500D02*
D03*
X609500D02*
D03*
X564500Y304500D02*
D03*
D42*
X609500D02*
D03*
D43*
X604000Y171000D02*
D03*
D44*
X659000Y146000D02*
D03*
X599000D02*
D03*
X654000Y121000D02*
D03*
X604000D02*
D03*
X654000Y171000D02*
D03*
D45*
X80000Y299400D02*
D03*
Y274000D02*
D03*
X296600Y23000D02*
D03*
X322000D02*
D03*
X50400Y491700D02*
D03*
X25000D02*
D03*
Y466300D02*
D03*
X50400D02*
D03*
X25000Y517100D02*
D03*
X50400D02*
D03*
Y542500D02*
D03*
X418000Y22000D02*
D03*
Y47400D02*
D03*
X392600D02*
D03*
Y22000D02*
D03*
X443400Y47400D02*
D03*
Y22000D02*
D03*
X468800D02*
D03*
X677000Y292800D02*
D03*
Y267400D02*
D03*
Y242000D02*
D03*
X651600Y267400D02*
D03*
Y242000D02*
D03*
D46*
X80000Y248600D02*
D03*
X25000Y542500D02*
D03*
X651600Y292800D02*
D03*
D47*
X347400Y23000D02*
D03*
X468800Y47400D02*
D03*
D48*
X40000Y660000D02*
D03*
X660000Y40000D02*
D03*
Y660000D02*
D03*
X40000Y40000D02*
D03*
D49*
X46700Y399000D02*
D03*
D50*
X21300D02*
D03*
D51*
X549000Y122000D02*
D03*
Y129000D02*
D03*
X330000Y461000D02*
D03*
X7000Y273000D02*
D03*
Y282000D02*
D03*
Y290000D02*
D03*
Y298000D02*
D03*
X125250Y210250D02*
D03*
X131000Y216000D02*
D03*
X691000Y324000D02*
D03*
X162000Y306000D02*
D03*
X170000D02*
D03*
X137000Y443000D02*
D03*
X594500Y446500D02*
D03*
X202000Y460000D02*
D03*
X197000Y455000D02*
D03*
X243579Y558913D02*
D03*
X449000Y444000D02*
D03*
X359000Y326995D02*
D03*
X353000Y352000D02*
D03*
X58000Y428000D02*
D03*
X74000Y460000D02*
D03*
X11000Y443000D02*
D03*
X148000D02*
D03*
X139000Y413000D02*
D03*
X86000Y329000D02*
D03*
X80000Y373000D02*
D03*
X225000Y435000D02*
D03*
X250000Y445000D02*
D03*
X470000Y99000D02*
D03*
X279000Y197000D02*
D03*
X179000Y306000D02*
D03*
X119000Y279000D02*
D03*
X279000Y187000D02*
D03*
X54000Y214000D02*
D03*
X544000Y311000D02*
D03*
X531000D02*
D03*
X576000Y81000D02*
D03*
X583000Y90000D02*
D03*
X520000Y311000D02*
D03*
X501000Y188000D02*
D03*
X241000Y393000D02*
D03*
X479000Y278000D02*
D03*
X491000Y245000D02*
D03*
X613000Y257000D02*
D03*
Y265000D02*
D03*
X656000Y338000D02*
D03*
X639000Y346000D02*
D03*
X592000Y566000D02*
D03*
X591000Y553000D02*
D03*
X574000Y637000D02*
D03*
X580000Y581000D02*
D03*
X602000Y439000D02*
D03*
X115191Y635191D02*
D03*
X312000Y650000D02*
D03*
X617000Y617000D02*
D03*
X647000Y602000D02*
D03*
X596000Y637000D02*
D03*
X476000Y552000D02*
D03*
X381000Y461000D02*
D03*
X122000Y410000D02*
D03*
X366000Y371000D02*
D03*
X396000Y500000D02*
D03*
X408000Y495000D02*
D03*
X383000Y379000D02*
D03*
X379000Y304000D02*
D03*
X371000Y315000D02*
D03*
X479000Y298000D02*
D03*
X424000D02*
D03*
X326000Y394000D02*
D03*
X323000Y416000D02*
D03*
X498959Y477500D02*
D03*
X337000Y559000D02*
D03*
X307000Y511000D02*
D03*
M02*
