G04*
G04 #@! TF.GenerationSoftware,Altium Limited,Altium Designer,25.0.2 (28)*
G04*
G04 Layer_Color=8421504*
%FSLAX44Y44*%
%MOMM*%
G71*
G04*
G04 #@! TF.SameCoordinates,3652E9EE-E87F-4F02-B139-E53364EF2805*
G04*
G04*
G04 #@! TF.FilePolarity,Positive*
G04*
G01*
G75*
%ADD17R,1.2000X0.9000*%
%ADD18R,0.9000X1.2000*%
%ADD19R,0.9000X1.3000*%
G04:AMPARAMS|DCode=20|XSize=0.7mm|YSize=1.5mm|CornerRadius=0.063mm|HoleSize=0mm|Usage=FLASHONLY|Rotation=270.000|XOffset=0mm|YOffset=0mm|HoleType=Round|Shape=RoundedRectangle|*
%AMROUNDEDRECTD20*
21,1,0.7000,1.3740,0,0,270.0*
21,1,0.5740,1.5000,0,0,270.0*
1,1,0.1260,-0.6870,-0.2870*
1,1,0.1260,-0.6870,0.2870*
1,1,0.1260,0.6870,0.2870*
1,1,0.1260,0.6870,-0.2870*
%
%ADD20ROUNDEDRECTD20*%
%ADD21R,1.3000X0.9000*%
%ADD22R,4.0000X3.3000*%
%ADD23R,2.1348X0.6249*%
%ADD24R,4.2000X1.9000*%
%ADD25R,0.8000X0.8000*%
%ADD26R,0.3000X1.9000*%
%ADD27R,1.9000X0.3000*%
%ADD28R,1.1000X0.6000*%
%ADD29R,3.5000X2.2000*%
%ADD30R,0.6000X2.2000*%
%ADD31R,0.8300X0.7000*%
D17*
X564000Y112500D02*
D03*
Y133500D02*
D03*
Y170500D02*
D03*
Y149500D02*
D03*
X587000Y208500D02*
D03*
Y229500D02*
D03*
X137000Y40500D02*
D03*
Y61500D02*
D03*
X292000Y261500D02*
D03*
Y240500D02*
D03*
X508000Y548500D02*
D03*
Y569500D02*
D03*
X629000Y284500D02*
D03*
Y263500D02*
D03*
X445000Y68500D02*
D03*
Y89500D02*
D03*
X628000Y345500D02*
D03*
Y324500D02*
D03*
X54000Y283500D02*
D03*
Y304500D02*
D03*
Y262500D02*
D03*
Y283500D02*
D03*
D18*
X547451Y211951D02*
D03*
X568451D02*
D03*
X151500Y492000D02*
D03*
X130500D02*
D03*
X548500Y281000D02*
D03*
X527500D02*
D03*
X23500Y359000D02*
D03*
X44500D02*
D03*
D19*
X567500Y190000D02*
D03*
X548500D02*
D03*
X467000Y454000D02*
D03*
X486000D02*
D03*
X233500Y473000D02*
D03*
X214500D02*
D03*
X547500Y259000D02*
D03*
X528500D02*
D03*
X502500Y164000D02*
D03*
X521500D02*
D03*
X510500Y260000D02*
D03*
X491500D02*
D03*
X326250Y648750D02*
D03*
X345250D02*
D03*
X96500Y648000D02*
D03*
X115500D02*
D03*
X596500Y622000D02*
D03*
X577500D02*
D03*
X430000Y458000D02*
D03*
X449000D02*
D03*
X466500Y477000D02*
D03*
X485500D02*
D03*
X81500Y443000D02*
D03*
X62500D02*
D03*
X27500D02*
D03*
X46500D02*
D03*
X269750Y456000D02*
D03*
X250750D02*
D03*
X233500Y451000D02*
D03*
X214500D02*
D03*
X82000Y359000D02*
D03*
X63000D02*
D03*
X656500Y324000D02*
D03*
X675500D02*
D03*
X103500Y395000D02*
D03*
X122500D02*
D03*
X138500D02*
D03*
X157500D02*
D03*
X71500Y325000D02*
D03*
X52500D02*
D03*
D20*
X59000Y200450D02*
D03*
Y187750D02*
D03*
Y175050D02*
D03*
Y162350D02*
D03*
Y149650D02*
D03*
Y136950D02*
D03*
Y124250D02*
D03*
Y111550D02*
D03*
X115000Y200450D02*
D03*
Y187750D02*
D03*
Y162350D02*
D03*
Y149650D02*
D03*
Y136950D02*
D03*
Y124250D02*
D03*
Y111550D02*
D03*
Y175050D02*
D03*
D21*
X114000Y41500D02*
D03*
Y60500D02*
D03*
X647000Y588500D02*
D03*
Y569500D02*
D03*
X470000Y87500D02*
D03*
Y68500D02*
D03*
X106000Y278500D02*
D03*
Y259500D02*
D03*
X518000Y64500D02*
D03*
Y45500D02*
D03*
X54000Y225500D02*
D03*
Y244500D02*
D03*
D22*
X212330Y160082D02*
D03*
Y26082D02*
D03*
D23*
X241143Y182950D02*
D03*
Y195650D02*
D03*
Y208350D02*
D03*
Y221050D02*
D03*
X292857D02*
D03*
Y208350D02*
D03*
Y195650D02*
D03*
Y182950D02*
D03*
D24*
X545000Y578000D02*
D03*
X613000Y603400D02*
D03*
Y552600D02*
D03*
D25*
X488000Y569500D02*
D03*
Y552500D02*
D03*
D26*
X384052Y500501D02*
D03*
X349052D02*
D03*
X374052D02*
D03*
X359052D02*
D03*
X344052D02*
D03*
X354052D02*
D03*
X369052D02*
D03*
X379052D02*
D03*
X339052D02*
D03*
X364052D02*
D03*
X339052Y416501D02*
D03*
X354052D02*
D03*
X349052D02*
D03*
X359052D02*
D03*
X374052D02*
D03*
X379052D02*
D03*
X369052D02*
D03*
X364052D02*
D03*
X384052D02*
D03*
X344052D02*
D03*
X334052Y500501D02*
D03*
X329052D02*
D03*
X334052Y416501D02*
D03*
X329052D02*
D03*
D27*
X398551Y486001D02*
D03*
Y446001D02*
D03*
Y476001D02*
D03*
Y481001D02*
D03*
Y466001D02*
D03*
Y456001D02*
D03*
Y461001D02*
D03*
Y471001D02*
D03*
Y441001D02*
D03*
Y436001D02*
D03*
X314552Y441001D02*
D03*
Y446001D02*
D03*
Y481001D02*
D03*
Y471001D02*
D03*
Y461001D02*
D03*
Y436001D02*
D03*
Y431001D02*
D03*
Y486001D02*
D03*
Y466001D02*
D03*
Y451001D02*
D03*
Y456001D02*
D03*
Y476001D02*
D03*
X398551Y451001D02*
D03*
Y431001D02*
D03*
D28*
X503000Y200500D02*
D03*
Y181500D02*
D03*
X529000Y200500D02*
D03*
Y191000D02*
D03*
Y181500D02*
D03*
X515000Y278500D02*
D03*
Y288000D02*
D03*
Y297500D02*
D03*
X489000Y278500D02*
D03*
Y297500D02*
D03*
D29*
X135000Y309000D02*
D03*
D30*
X109600Y371000D02*
D03*
X122300D02*
D03*
X135000D02*
D03*
X147700D02*
D03*
X160400D02*
D03*
D31*
X538000Y140850D02*
D03*
Y163150D02*
D03*
X629000Y222850D02*
D03*
Y245150D02*
D03*
M02*
