G04*
G04 #@! TF.GenerationSoftware,Altium Limited,Altium Designer,25.0.2 (28)*
G04*
G04 Layer_Color=16777215*
%FSLAX44Y44*%
%MOMM*%
G71*
G04*
G04 #@! TF.SameCoordinates,3652E9EE-E87F-4F02-B139-E53364EF2805*
G04*
G04*
G04 #@! TF.FilePolarity,Positive*
G04*
G01*
G75*
%ADD52C,0.2540*%
%ADD53C,0.1524*%
G36*
X-313894Y-115437D02*
X-313665Y-115452D01*
X-313421Y-115483D01*
X-313131Y-115513D01*
X-312825Y-115574D01*
X-312520Y-115635D01*
X-312184Y-115712D01*
X-311848Y-115803D01*
X-311528Y-115910D01*
X-311207Y-116047D01*
X-310887Y-116215D01*
X-310597Y-116383D01*
X-310337Y-116597D01*
X-310322Y-116612D01*
X-310276Y-116643D01*
X-310215Y-116719D01*
X-310123Y-116811D01*
X-310016Y-116917D01*
X-309910Y-117070D01*
X-309787Y-117238D01*
X-309650Y-117421D01*
X-309528Y-117635D01*
X-309406Y-117864D01*
X-309284Y-118124D01*
X-309177Y-118398D01*
X-309070Y-118688D01*
X-308994Y-119009D01*
X-308948Y-119345D01*
X-308917Y-119696D01*
X-311757Y-119803D01*
Y-119787D01*
X-311772Y-119757D01*
Y-119696D01*
X-311787Y-119635D01*
X-311818Y-119543D01*
X-311848Y-119436D01*
X-311925Y-119207D01*
X-312031Y-118963D01*
X-312169Y-118704D01*
X-312337Y-118459D01*
X-312551Y-118261D01*
X-312581Y-118246D01*
X-312657Y-118185D01*
X-312795Y-118108D01*
X-312993Y-118017D01*
X-313253Y-117925D01*
X-313558Y-117849D01*
X-313924Y-117788D01*
X-314352Y-117772D01*
X-314550D01*
X-314657Y-117788D01*
X-314779Y-117803D01*
X-315069Y-117833D01*
X-315375Y-117894D01*
X-315710Y-117986D01*
X-316016Y-118124D01*
X-316306Y-118291D01*
X-316321Y-118307D01*
X-316367Y-118352D01*
X-316443Y-118429D01*
X-316520Y-118520D01*
X-316611Y-118643D01*
X-316672Y-118795D01*
X-316733Y-118963D01*
X-316749Y-119162D01*
Y-119177D01*
Y-119238D01*
X-316733Y-119345D01*
X-316703Y-119452D01*
X-316642Y-119589D01*
X-316581Y-119742D01*
X-316474Y-119879D01*
X-316336Y-120016D01*
X-316306Y-120032D01*
X-316275Y-120062D01*
X-316214Y-120093D01*
X-316153Y-120139D01*
X-316061Y-120184D01*
X-315939Y-120245D01*
X-315802Y-120307D01*
X-315649Y-120367D01*
X-315466Y-120444D01*
X-315252Y-120520D01*
X-315008Y-120597D01*
X-314733Y-120688D01*
X-314428Y-120780D01*
X-314092Y-120871D01*
X-313726Y-120963D01*
X-313695D01*
X-313634Y-120978D01*
X-313528Y-121009D01*
X-313390Y-121039D01*
X-313207Y-121085D01*
X-313024Y-121146D01*
X-312795Y-121207D01*
X-312566Y-121268D01*
X-312062Y-121421D01*
X-311558Y-121589D01*
X-311314Y-121680D01*
X-311070Y-121772D01*
X-310856Y-121879D01*
X-310658Y-121970D01*
X-310642D01*
X-310612Y-122001D01*
X-310566Y-122031D01*
X-310490Y-122062D01*
X-310306Y-122184D01*
X-310077Y-122337D01*
X-309833Y-122550D01*
X-309574Y-122795D01*
X-309314Y-123085D01*
X-309085Y-123405D01*
Y-123421D01*
X-309055Y-123451D01*
X-309039Y-123497D01*
X-308994Y-123573D01*
X-308948Y-123665D01*
X-308902Y-123772D01*
X-308856Y-123894D01*
X-308795Y-124031D01*
X-308749Y-124184D01*
X-308704Y-124352D01*
X-308612Y-124733D01*
X-308551Y-125176D01*
X-308520Y-125649D01*
Y-125665D01*
Y-125695D01*
Y-125772D01*
X-308536Y-125848D01*
Y-125955D01*
X-308551Y-126092D01*
X-308582Y-126229D01*
X-308612Y-126382D01*
X-308688Y-126733D01*
X-308811Y-127115D01*
X-308978Y-127512D01*
X-309085Y-127725D01*
X-309207Y-127924D01*
Y-127939D01*
X-309238Y-127970D01*
X-309284Y-128031D01*
X-309329Y-128092D01*
X-309406Y-128183D01*
X-309482Y-128290D01*
X-309696Y-128519D01*
X-309971Y-128764D01*
X-310291Y-129038D01*
X-310673Y-129283D01*
X-311115Y-129496D01*
X-311131D01*
X-311177Y-129511D01*
X-311238Y-129542D01*
X-311329Y-129573D01*
X-311451Y-129618D01*
X-311604Y-129649D01*
X-311772Y-129695D01*
X-311955Y-129740D01*
X-312169Y-129802D01*
X-312398Y-129847D01*
X-312657Y-129878D01*
X-312932Y-129924D01*
X-313207Y-129954D01*
X-313528Y-129985D01*
X-313848Y-130000D01*
X-314306D01*
X-314443Y-129985D01*
X-314627D01*
X-314840Y-129970D01*
X-315100Y-129939D01*
X-315390Y-129893D01*
X-315695Y-129847D01*
X-316031Y-129786D01*
X-316367Y-129695D01*
X-316703Y-129603D01*
X-317038Y-129481D01*
X-317374Y-129344D01*
X-317695Y-129176D01*
X-318000Y-128993D01*
X-318290Y-128779D01*
X-318305Y-128764D01*
X-318351Y-128718D01*
X-318428Y-128641D01*
X-318519Y-128550D01*
X-318626Y-128412D01*
X-318764Y-128260D01*
X-318901Y-128077D01*
X-319038Y-127863D01*
X-319191Y-127619D01*
X-319344Y-127359D01*
X-319481Y-127054D01*
X-319618Y-126733D01*
X-319741Y-126382D01*
X-319847Y-126016D01*
X-319939Y-125604D01*
X-320000Y-125176D01*
X-317237Y-124901D01*
Y-124917D01*
X-317222Y-124962D01*
X-317206Y-125039D01*
X-317191Y-125130D01*
X-317161Y-125253D01*
X-317115Y-125375D01*
X-317023Y-125680D01*
X-316886Y-126016D01*
X-316703Y-126367D01*
X-316489Y-126687D01*
X-316367Y-126825D01*
X-316229Y-126962D01*
X-316214D01*
X-316199Y-126993D01*
X-316153Y-127023D01*
X-316092Y-127069D01*
X-316016Y-127115D01*
X-315909Y-127161D01*
X-315802Y-127222D01*
X-315680Y-127283D01*
X-315375Y-127405D01*
X-315023Y-127497D01*
X-314611Y-127573D01*
X-314153Y-127603D01*
X-314016D01*
X-313924Y-127588D01*
X-313802D01*
X-313680Y-127573D01*
X-313375Y-127527D01*
X-313039Y-127466D01*
X-312688Y-127359D01*
X-312352Y-127222D01*
X-312199Y-127130D01*
X-312062Y-127023D01*
X-312047D01*
X-312031Y-126993D01*
X-311955Y-126916D01*
X-311833Y-126794D01*
X-311711Y-126642D01*
X-311589Y-126443D01*
X-311467Y-126199D01*
X-311390Y-125939D01*
X-311360Y-125802D01*
Y-125665D01*
Y-125649D01*
Y-125573D01*
X-311375Y-125481D01*
X-311390Y-125375D01*
X-311436Y-125237D01*
X-311482Y-125084D01*
X-311558Y-124947D01*
X-311665Y-124810D01*
X-311680Y-124795D01*
X-311726Y-124749D01*
X-311803Y-124688D01*
X-311894Y-124596D01*
X-312047Y-124504D01*
X-312215Y-124398D01*
X-312428Y-124306D01*
X-312688Y-124199D01*
X-312718Y-124184D01*
X-312749D01*
X-312795Y-124169D01*
X-312856Y-124153D01*
X-312947Y-124123D01*
X-313039Y-124092D01*
X-313161Y-124062D01*
X-313298Y-124016D01*
X-313466Y-123970D01*
X-313650Y-123924D01*
X-313863Y-123863D01*
X-314092Y-123802D01*
X-314352Y-123741D01*
X-314642Y-123665D01*
X-314962Y-123588D01*
X-314993D01*
X-315069Y-123558D01*
X-315176Y-123527D01*
X-315329Y-123482D01*
X-315527Y-123436D01*
X-315741Y-123359D01*
X-315970Y-123283D01*
X-316214Y-123207D01*
X-316749Y-122993D01*
X-317283Y-122764D01*
X-317527Y-122627D01*
X-317771Y-122489D01*
X-317985Y-122352D01*
X-318168Y-122199D01*
X-318183Y-122184D01*
X-318229Y-122138D01*
X-318290Y-122077D01*
X-318367Y-121986D01*
X-318473Y-121879D01*
X-318580Y-121741D01*
X-318702Y-121589D01*
X-318809Y-121406D01*
X-318931Y-121207D01*
X-319053Y-120993D01*
X-319160Y-120749D01*
X-319267Y-120505D01*
X-319344Y-120245D01*
X-319405Y-119955D01*
X-319450Y-119665D01*
X-319466Y-119360D01*
Y-119345D01*
Y-119314D01*
Y-119253D01*
X-319450Y-119177D01*
Y-119085D01*
X-319435Y-118963D01*
X-319389Y-118704D01*
X-319313Y-118398D01*
X-319206Y-118047D01*
X-319053Y-117696D01*
X-318855Y-117345D01*
Y-117330D01*
X-318825Y-117299D01*
X-318794Y-117253D01*
X-318748Y-117192D01*
X-318596Y-117024D01*
X-318412Y-116811D01*
X-318153Y-116582D01*
X-317863Y-116353D01*
X-317496Y-116124D01*
X-317100Y-115925D01*
X-317084D01*
X-317054Y-115910D01*
X-316977Y-115879D01*
X-316901Y-115849D01*
X-316779Y-115803D01*
X-316657Y-115773D01*
X-316504Y-115727D01*
X-316321Y-115666D01*
X-316123Y-115620D01*
X-315924Y-115574D01*
X-315695Y-115544D01*
X-315451Y-115498D01*
X-315176Y-115467D01*
X-314917Y-115437D01*
X-314321Y-115421D01*
X-314062D01*
X-313894Y-115437D01*
D02*
G37*
G36*
X-241673Y-122230D02*
X-244375D01*
Y-119528D01*
X-241673D01*
Y-122230D01*
D02*
G37*
G36*
X-264632D02*
X-267334D01*
Y-119528D01*
X-264632D01*
Y-122230D01*
D02*
G37*
G36*
X-301498Y-119314D02*
X-301330Y-119330D01*
X-301162Y-119345D01*
X-300949Y-119360D01*
X-300735Y-119406D01*
X-300262Y-119497D01*
X-299773Y-119635D01*
X-299529Y-119726D01*
X-299285Y-119833D01*
X-299056Y-119971D01*
X-298842Y-120108D01*
X-298827Y-120123D01*
X-298796Y-120139D01*
X-298735Y-120184D01*
X-298659Y-120261D01*
X-298567Y-120337D01*
X-298461Y-120444D01*
X-298354Y-120566D01*
X-298232Y-120703D01*
X-298109Y-120871D01*
X-297972Y-121054D01*
X-297835Y-121253D01*
X-297712Y-121467D01*
X-297575Y-121711D01*
X-297468Y-121955D01*
X-297346Y-122245D01*
X-297255Y-122535D01*
X-299911Y-123008D01*
Y-122993D01*
Y-122978D01*
X-299941Y-122886D01*
X-299987Y-122734D01*
X-300033Y-122566D01*
X-300124Y-122383D01*
X-300231Y-122184D01*
X-300369Y-122001D01*
X-300537Y-121833D01*
X-300552Y-121818D01*
X-300628Y-121772D01*
X-300720Y-121696D01*
X-300872Y-121619D01*
X-301040Y-121558D01*
X-301254Y-121482D01*
X-301498Y-121436D01*
X-301773Y-121421D01*
X-301865D01*
X-301941Y-121436D01*
X-302017D01*
X-302124Y-121451D01*
X-302353Y-121512D01*
X-302613Y-121589D01*
X-302872Y-121711D01*
X-303132Y-121894D01*
X-303254Y-122001D01*
X-303376Y-122123D01*
Y-122138D01*
X-303407Y-122154D01*
X-303437Y-122199D01*
X-303468Y-122260D01*
X-303513Y-122337D01*
X-303559Y-122428D01*
X-303620Y-122550D01*
X-303666Y-122673D01*
X-303727Y-122825D01*
X-303788Y-123008D01*
X-303834Y-123192D01*
X-303880Y-123405D01*
X-303910Y-123634D01*
X-303941Y-123894D01*
X-303971Y-124169D01*
Y-124459D01*
Y-124474D01*
Y-124535D01*
Y-124627D01*
X-303956Y-124749D01*
Y-124901D01*
X-303941Y-125069D01*
X-303925Y-125253D01*
X-303895Y-125466D01*
X-303819Y-125878D01*
X-303727Y-126306D01*
X-303651Y-126504D01*
X-303574Y-126703D01*
X-303483Y-126871D01*
X-303376Y-127023D01*
Y-127038D01*
X-303345Y-127054D01*
X-303269Y-127145D01*
X-303132Y-127252D01*
X-302933Y-127390D01*
X-302704Y-127527D01*
X-302430Y-127649D01*
X-302094Y-127741D01*
X-301910Y-127756D01*
X-301727Y-127771D01*
X-301605D01*
X-301453Y-127741D01*
X-301285Y-127710D01*
X-301086Y-127664D01*
X-300872Y-127588D01*
X-300674Y-127481D01*
X-300476Y-127344D01*
X-300460Y-127329D01*
X-300399Y-127252D01*
X-300308Y-127145D01*
X-300201Y-126993D01*
X-300094Y-126779D01*
X-299972Y-126519D01*
X-299865Y-126199D01*
X-299773Y-125833D01*
X-297117Y-126291D01*
Y-126306D01*
X-297132Y-126367D01*
X-297163Y-126458D01*
X-297209Y-126596D01*
X-297255Y-126749D01*
X-297316Y-126916D01*
X-297392Y-127115D01*
X-297484Y-127329D01*
X-297697Y-127771D01*
X-297819Y-128000D01*
X-297972Y-128229D01*
X-298140Y-128458D01*
X-298308Y-128672D01*
X-298506Y-128870D01*
X-298720Y-129053D01*
X-298735Y-129069D01*
X-298766Y-129099D01*
X-298842Y-129145D01*
X-298934Y-129191D01*
X-299056Y-129267D01*
X-299193Y-129344D01*
X-299361Y-129420D01*
X-299544Y-129511D01*
X-299758Y-129603D01*
X-299987Y-129679D01*
X-300247Y-129756D01*
X-300537Y-129832D01*
X-300827Y-129878D01*
X-301147Y-129924D01*
X-301483Y-129954D01*
X-301849Y-129970D01*
X-301941D01*
X-302063Y-129954D01*
X-302216D01*
X-302399Y-129924D01*
X-302628Y-129893D01*
X-302872Y-129847D01*
X-303132Y-129786D01*
X-303407Y-129725D01*
X-303696Y-129634D01*
X-303987Y-129511D01*
X-304292Y-129374D01*
X-304582Y-129221D01*
X-304872Y-129023D01*
X-305147Y-128809D01*
X-305406Y-128565D01*
X-305422Y-128550D01*
X-305467Y-128504D01*
X-305528Y-128412D01*
X-305620Y-128306D01*
X-305712Y-128153D01*
X-305818Y-127985D01*
X-305941Y-127771D01*
X-306063Y-127542D01*
X-306200Y-127283D01*
X-306307Y-126993D01*
X-306429Y-126672D01*
X-306521Y-126321D01*
X-306612Y-125939D01*
X-306673Y-125542D01*
X-306719Y-125115D01*
X-306734Y-124657D01*
Y-124627D01*
Y-124550D01*
X-306719Y-124413D01*
Y-124245D01*
X-306689Y-124031D01*
X-306658Y-123787D01*
X-306628Y-123512D01*
X-306566Y-123207D01*
X-306490Y-122902D01*
X-306414Y-122581D01*
X-306307Y-122260D01*
X-306169Y-121925D01*
X-306017Y-121604D01*
X-305849Y-121284D01*
X-305635Y-120993D01*
X-305406Y-120719D01*
X-305391Y-120703D01*
X-305345Y-120658D01*
X-305269Y-120581D01*
X-305162Y-120490D01*
X-305025Y-120383D01*
X-304872Y-120276D01*
X-304674Y-120139D01*
X-304460Y-120001D01*
X-304216Y-119879D01*
X-303941Y-119742D01*
X-303651Y-119635D01*
X-303330Y-119513D01*
X-302979Y-119436D01*
X-302613Y-119360D01*
X-302216Y-119314D01*
X-301804Y-119299D01*
X-301621D01*
X-301498Y-119314D01*
D02*
G37*
G36*
X-232010Y-129740D02*
X-234712D01*
Y-119589D01*
X-234727Y-119604D01*
X-234773Y-119650D01*
X-234865Y-119726D01*
X-234972Y-119818D01*
X-235109Y-119925D01*
X-235292Y-120062D01*
X-235476Y-120215D01*
X-235704Y-120367D01*
X-235949Y-120535D01*
X-236208Y-120703D01*
X-236498Y-120871D01*
X-236804Y-121039D01*
X-237124Y-121207D01*
X-237475Y-121360D01*
X-237826Y-121497D01*
X-238193Y-121635D01*
Y-119177D01*
X-238178D01*
X-238147Y-119162D01*
X-238086Y-119146D01*
X-238009Y-119116D01*
X-237903Y-119070D01*
X-237796Y-119024D01*
X-237658Y-118963D01*
X-237506Y-118887D01*
X-237170Y-118719D01*
X-236788Y-118490D01*
X-236361Y-118215D01*
X-235903Y-117879D01*
X-235888Y-117864D01*
X-235842Y-117833D01*
X-235781Y-117788D01*
X-235704Y-117711D01*
X-235598Y-117620D01*
X-235491Y-117498D01*
X-235369Y-117375D01*
X-235231Y-117223D01*
X-234941Y-116887D01*
X-234666Y-116505D01*
X-234407Y-116078D01*
X-234300Y-115849D01*
X-234208Y-115605D01*
X-232010D01*
Y-129740D01*
D02*
G37*
G36*
X-241673D02*
X-244375D01*
Y-127038D01*
X-241673D01*
Y-129740D01*
D02*
G37*
G36*
X-249504D02*
X-252206D01*
Y-119589D01*
X-252222Y-119604D01*
X-252267Y-119650D01*
X-252359Y-119726D01*
X-252466Y-119818D01*
X-252603Y-119925D01*
X-252786Y-120062D01*
X-252970Y-120215D01*
X-253199Y-120367D01*
X-253443Y-120535D01*
X-253702Y-120703D01*
X-253992Y-120871D01*
X-254298Y-121039D01*
X-254618Y-121207D01*
X-254969Y-121360D01*
X-255320Y-121497D01*
X-255687Y-121635D01*
Y-119177D01*
X-255672D01*
X-255641Y-119162D01*
X-255580Y-119146D01*
X-255504Y-119116D01*
X-255397Y-119070D01*
X-255290Y-119024D01*
X-255153Y-118963D01*
X-255000Y-118887D01*
X-254664Y-118719D01*
X-254282Y-118490D01*
X-253855Y-118215D01*
X-253397Y-117879D01*
X-253382Y-117864D01*
X-253336Y-117833D01*
X-253275Y-117788D01*
X-253199Y-117711D01*
X-253092Y-117620D01*
X-252985Y-117498D01*
X-252863Y-117375D01*
X-252725Y-117223D01*
X-252435Y-116887D01*
X-252161Y-116505D01*
X-251901Y-116078D01*
X-251794Y-115849D01*
X-251703Y-115605D01*
X-249504D01*
Y-129740D01*
D02*
G37*
G36*
X-264632D02*
X-267334D01*
Y-127038D01*
X-264632D01*
Y-129740D01*
D02*
G37*
G36*
X-281546D02*
X-284248D01*
Y-115651D01*
X-281546D01*
Y-129740D01*
D02*
G37*
G36*
X-290767Y-119314D02*
X-290584D01*
X-290400Y-119330D01*
X-290187Y-119360D01*
X-289744Y-119406D01*
X-289301Y-119482D01*
X-288874Y-119589D01*
X-288691Y-119665D01*
X-288507Y-119742D01*
X-288492D01*
X-288462Y-119757D01*
X-288416Y-119787D01*
X-288370Y-119818D01*
X-288202Y-119910D01*
X-288019Y-120032D01*
X-287805Y-120200D01*
X-287607Y-120383D01*
X-287408Y-120597D01*
X-287256Y-120826D01*
X-287240Y-120856D01*
X-287225Y-120902D01*
X-287195Y-120948D01*
X-287164Y-121024D01*
X-287134Y-121131D01*
X-287103Y-121238D01*
X-287073Y-121375D01*
X-287042Y-121528D01*
X-287012Y-121696D01*
X-286981Y-121894D01*
X-286950Y-122123D01*
X-286920Y-122367D01*
X-286905Y-122627D01*
X-286889Y-122917D01*
Y-123237D01*
X-286935Y-126397D01*
Y-126413D01*
Y-126458D01*
Y-126519D01*
Y-126611D01*
Y-126733D01*
Y-126855D01*
X-286920Y-127145D01*
X-286905Y-127466D01*
X-286889Y-127802D01*
X-286859Y-128107D01*
X-286828Y-128260D01*
X-286813Y-128382D01*
Y-128412D01*
X-286782Y-128489D01*
X-286752Y-128626D01*
X-286706Y-128794D01*
X-286645Y-128993D01*
X-286553Y-129221D01*
X-286447Y-129481D01*
X-286325Y-129740D01*
X-288996D01*
Y-129725D01*
X-289011Y-129695D01*
X-289042Y-129634D01*
X-289072Y-129542D01*
X-289103Y-129435D01*
X-289164Y-129298D01*
X-289210Y-129130D01*
X-289271Y-128947D01*
Y-128931D01*
X-289286Y-128901D01*
X-289301Y-128809D01*
X-289332Y-128702D01*
X-289347Y-128657D01*
X-289362Y-128626D01*
X-289393Y-128657D01*
X-289485Y-128733D01*
X-289622Y-128855D01*
X-289805Y-129008D01*
X-290019Y-129160D01*
X-290278Y-129328D01*
X-290553Y-129496D01*
X-290843Y-129634D01*
X-290858D01*
X-290874Y-129649D01*
X-290919Y-129664D01*
X-290980Y-129679D01*
X-291133Y-129740D01*
X-291347Y-129802D01*
X-291591Y-129863D01*
X-291881Y-129924D01*
X-292186Y-129954D01*
X-292522Y-129970D01*
X-292675D01*
X-292782Y-129954D01*
X-292919Y-129939D01*
X-293072Y-129924D01*
X-293240Y-129893D01*
X-293423Y-129863D01*
X-293820Y-129771D01*
X-294232Y-129618D01*
X-294446Y-129511D01*
X-294644Y-129405D01*
X-294827Y-129283D01*
X-295011Y-129130D01*
X-295026Y-129115D01*
X-295056Y-129084D01*
X-295087Y-129038D01*
X-295148Y-128977D01*
X-295224Y-128886D01*
X-295301Y-128794D01*
X-295377Y-128672D01*
X-295453Y-128534D01*
X-295545Y-128382D01*
X-295621Y-128229D01*
X-295774Y-127848D01*
X-295835Y-127649D01*
X-295865Y-127435D01*
X-295896Y-127206D01*
X-295911Y-126962D01*
Y-126947D01*
Y-126916D01*
Y-126871D01*
Y-126810D01*
X-295896Y-126657D01*
X-295865Y-126443D01*
X-295804Y-126199D01*
X-295743Y-125939D01*
X-295636Y-125680D01*
X-295499Y-125420D01*
Y-125405D01*
X-295484Y-125390D01*
X-295423Y-125314D01*
X-295331Y-125191D01*
X-295194Y-125039D01*
X-295041Y-124871D01*
X-294843Y-124703D01*
X-294614Y-124535D01*
X-294354Y-124398D01*
X-294339D01*
X-294324Y-124382D01*
X-294278Y-124367D01*
X-294217Y-124337D01*
X-294140Y-124306D01*
X-294049Y-124260D01*
X-293927Y-124230D01*
X-293805Y-124184D01*
X-293667Y-124138D01*
X-293499Y-124077D01*
X-293316Y-124031D01*
X-293133Y-123970D01*
X-292919Y-123924D01*
X-292690Y-123863D01*
X-292461Y-123802D01*
X-292202Y-123756D01*
X-292186D01*
X-292125Y-123741D01*
X-292019Y-123726D01*
X-291896Y-123695D01*
X-291744Y-123665D01*
X-291561Y-123634D01*
X-291362Y-123588D01*
X-291148Y-123543D01*
X-290721Y-123436D01*
X-290278Y-123329D01*
X-290080Y-123268D01*
X-289881Y-123207D01*
X-289713Y-123146D01*
X-289561Y-123085D01*
Y-122825D01*
Y-122810D01*
Y-122795D01*
Y-122688D01*
X-289576Y-122550D01*
X-289607Y-122383D01*
X-289652Y-122199D01*
X-289729Y-122016D01*
X-289820Y-121833D01*
X-289958Y-121696D01*
X-289973Y-121680D01*
X-290034Y-121650D01*
X-290141Y-121589D01*
X-290278Y-121528D01*
X-290477Y-121467D01*
X-290736Y-121406D01*
X-290889Y-121390D01*
X-291042Y-121375D01*
X-291225Y-121360D01*
X-291545D01*
X-291683Y-121375D01*
X-291835Y-121390D01*
X-292019Y-121436D01*
X-292217Y-121482D01*
X-292400Y-121558D01*
X-292568Y-121650D01*
X-292583Y-121665D01*
X-292629Y-121711D01*
X-292705Y-121772D01*
X-292797Y-121879D01*
X-292904Y-122016D01*
X-293011Y-122199D01*
X-293118Y-122413D01*
X-293209Y-122657D01*
X-295636Y-122215D01*
Y-122199D01*
X-295621Y-122154D01*
X-295591Y-122077D01*
X-295560Y-121970D01*
X-295514Y-121848D01*
X-295453Y-121711D01*
X-295301Y-121390D01*
X-295102Y-121024D01*
X-294858Y-120658D01*
X-294568Y-120322D01*
X-294400Y-120154D01*
X-294217Y-120016D01*
X-294202Y-120001D01*
X-294171Y-119986D01*
X-294110Y-119955D01*
X-294034Y-119910D01*
X-293927Y-119848D01*
X-293789Y-119787D01*
X-293637Y-119726D01*
X-293469Y-119650D01*
X-293255Y-119589D01*
X-293041Y-119528D01*
X-292797Y-119467D01*
X-292522Y-119406D01*
X-292232Y-119360D01*
X-291912Y-119330D01*
X-291576Y-119299D01*
X-290904D01*
X-290767Y-119314D01*
D02*
G37*
G36*
X-274692D02*
X-274524Y-119330D01*
X-274341Y-119345D01*
X-274112Y-119375D01*
X-273868Y-119421D01*
X-273608Y-119482D01*
X-273318Y-119574D01*
X-273028Y-119665D01*
X-272738Y-119787D01*
X-272433Y-119940D01*
X-272143Y-120108D01*
X-271853Y-120307D01*
X-271578Y-120551D01*
X-271319Y-120810D01*
X-271303Y-120826D01*
X-271258Y-120887D01*
X-271196Y-120963D01*
X-271120Y-121085D01*
X-271013Y-121253D01*
X-270907Y-121451D01*
X-270784Y-121680D01*
X-270662Y-121940D01*
X-270540Y-122245D01*
X-270433Y-122596D01*
X-270326Y-122963D01*
X-270235Y-123375D01*
X-270159Y-123833D01*
X-270097Y-124321D01*
X-270052Y-124840D01*
Y-125405D01*
X-276814D01*
Y-125420D01*
Y-125451D01*
Y-125527D01*
X-276799Y-125604D01*
X-276784Y-125710D01*
X-276768Y-125833D01*
X-276723Y-126092D01*
X-276646Y-126397D01*
X-276539Y-126718D01*
X-276387Y-127023D01*
X-276173Y-127298D01*
X-276158D01*
X-276143Y-127329D01*
X-276066Y-127405D01*
X-275929Y-127512D01*
X-275746Y-127619D01*
X-275517Y-127741D01*
X-275242Y-127848D01*
X-274937Y-127924D01*
X-274769Y-127939D01*
X-274601Y-127954D01*
X-274494D01*
X-274387Y-127939D01*
X-274234Y-127909D01*
X-274066Y-127878D01*
X-273899Y-127817D01*
X-273715Y-127725D01*
X-273547Y-127619D01*
X-273532Y-127603D01*
X-273471Y-127557D01*
X-273395Y-127466D01*
X-273303Y-127344D01*
X-273181Y-127191D01*
X-273074Y-126993D01*
X-272967Y-126764D01*
X-272876Y-126489D01*
X-270189Y-126947D01*
Y-126962D01*
X-270219Y-127008D01*
X-270250Y-127084D01*
X-270281Y-127191D01*
X-270342Y-127313D01*
X-270418Y-127451D01*
X-270494Y-127619D01*
X-270586Y-127787D01*
X-270815Y-128153D01*
X-271105Y-128519D01*
X-271441Y-128886D01*
X-271639Y-129053D01*
X-271838Y-129206D01*
X-271853Y-129221D01*
X-271884Y-129237D01*
X-271945Y-129283D01*
X-272036Y-129328D01*
X-272143Y-129389D01*
X-272280Y-129450D01*
X-272433Y-129511D01*
X-272601Y-129588D01*
X-272799Y-129664D01*
X-273013Y-129725D01*
X-273242Y-129786D01*
X-273486Y-129847D01*
X-273746Y-129893D01*
X-274036Y-129939D01*
X-274326Y-129954D01*
X-274631Y-129970D01*
X-274753D01*
X-274891Y-129954D01*
X-275074Y-129939D01*
X-275288Y-129924D01*
X-275547Y-129878D01*
X-275822Y-129832D01*
X-276127Y-129756D01*
X-276448Y-129664D01*
X-276768Y-129542D01*
X-277089Y-129405D01*
X-277425Y-129237D01*
X-277730Y-129038D01*
X-278035Y-128809D01*
X-278310Y-128550D01*
X-278570Y-128244D01*
X-278585Y-128229D01*
X-278615Y-128183D01*
X-278661Y-128107D01*
X-278722Y-127985D01*
X-278799Y-127848D01*
X-278890Y-127695D01*
X-278982Y-127497D01*
X-279074Y-127283D01*
X-279165Y-127038D01*
X-279257Y-126764D01*
X-279348Y-126474D01*
X-279425Y-126168D01*
X-279486Y-125833D01*
X-279531Y-125481D01*
X-279562Y-125100D01*
X-279577Y-124718D01*
Y-124688D01*
Y-124611D01*
X-279562Y-124474D01*
Y-124306D01*
X-279531Y-124092D01*
X-279501Y-123833D01*
X-279470Y-123573D01*
X-279409Y-123268D01*
X-279348Y-122963D01*
X-279257Y-122642D01*
X-279150Y-122306D01*
X-279028Y-121970D01*
X-278875Y-121650D01*
X-278692Y-121329D01*
X-278493Y-121024D01*
X-278264Y-120749D01*
X-278249Y-120734D01*
X-278203Y-120688D01*
X-278127Y-120612D01*
X-278020Y-120520D01*
X-277898Y-120413D01*
X-277730Y-120291D01*
X-277547Y-120154D01*
X-277348Y-120016D01*
X-277120Y-119894D01*
X-276860Y-119757D01*
X-276585Y-119635D01*
X-276280Y-119528D01*
X-275975Y-119436D01*
X-275639Y-119360D01*
X-275272Y-119314D01*
X-274906Y-119299D01*
X-274799D01*
X-274692Y-119314D01*
D02*
G37*
G36*
X-291072Y-98154D02*
X-293774D01*
Y-95651D01*
X-291072D01*
Y-98154D01*
D02*
G37*
G36*
X-229568Y-99314D02*
X-229461Y-99330D01*
X-229201Y-99360D01*
X-228911Y-99406D01*
X-228591Y-99497D01*
X-228270Y-99604D01*
X-227965Y-99757D01*
X-227950D01*
X-227934Y-99772D01*
X-227843Y-99848D01*
X-227705Y-99955D01*
X-227522Y-100093D01*
X-227339Y-100291D01*
X-227141Y-100520D01*
X-226957Y-100795D01*
X-226805Y-101100D01*
X-226789Y-101131D01*
X-226774Y-101177D01*
X-226759Y-101222D01*
X-226744Y-101299D01*
X-226713Y-101390D01*
X-226683Y-101482D01*
X-226652Y-101604D01*
X-226637Y-101757D01*
X-226606Y-101909D01*
X-226576Y-102077D01*
X-226560Y-102276D01*
X-226545Y-102474D01*
X-226530Y-102703D01*
X-226515Y-102963D01*
Y-103222D01*
Y-109740D01*
X-229217D01*
Y-103909D01*
Y-103894D01*
Y-103848D01*
Y-103772D01*
Y-103665D01*
X-229232Y-103543D01*
Y-103405D01*
X-229247Y-103085D01*
X-229293Y-102764D01*
X-229339Y-102428D01*
X-229369Y-102291D01*
X-229415Y-102154D01*
X-229461Y-102031D01*
X-229507Y-101940D01*
X-229522Y-101909D01*
X-229583Y-101848D01*
X-229659Y-101757D01*
X-229781Y-101650D01*
X-229949Y-101543D01*
X-230148Y-101451D01*
X-230377Y-101390D01*
X-230652Y-101360D01*
X-230743D01*
X-230850Y-101375D01*
X-231003Y-101406D01*
X-231155Y-101451D01*
X-231339Y-101512D01*
X-231522Y-101589D01*
X-231720Y-101711D01*
X-231735Y-101726D01*
X-231796Y-101772D01*
X-231888Y-101864D01*
X-231995Y-101970D01*
X-232117Y-102108D01*
X-232239Y-102291D01*
X-232346Y-102489D01*
X-232438Y-102734D01*
X-232453Y-102764D01*
Y-102810D01*
X-232468Y-102856D01*
X-232484Y-102932D01*
X-232499Y-103024D01*
X-232529Y-103115D01*
X-232544Y-103237D01*
X-232560Y-103375D01*
X-232590Y-103543D01*
X-232606Y-103711D01*
X-232621Y-103894D01*
X-232636Y-104108D01*
Y-104337D01*
X-232651Y-104581D01*
Y-104840D01*
Y-109740D01*
X-235353D01*
Y-104153D01*
Y-104138D01*
Y-104092D01*
Y-104016D01*
Y-103909D01*
Y-103787D01*
Y-103650D01*
X-235369Y-103344D01*
X-235384Y-103024D01*
X-235414Y-102703D01*
X-235430Y-102566D01*
X-235460Y-102428D01*
X-235476Y-102322D01*
X-235506Y-102230D01*
Y-102215D01*
X-235536Y-102154D01*
X-235567Y-102077D01*
X-235613Y-101986D01*
X-235750Y-101772D01*
X-235842Y-101665D01*
X-235949Y-101573D01*
X-235964Y-101558D01*
X-236010Y-101543D01*
X-236071Y-101512D01*
X-236162Y-101467D01*
X-236285Y-101421D01*
X-236422Y-101390D01*
X-236590Y-101375D01*
X-236773Y-101360D01*
X-236880D01*
X-237002Y-101375D01*
X-237155Y-101406D01*
X-237323Y-101451D01*
X-237506Y-101512D01*
X-237704Y-101589D01*
X-237903Y-101711D01*
X-237918Y-101726D01*
X-237979Y-101772D01*
X-238071Y-101848D01*
X-238178Y-101955D01*
X-238284Y-102093D01*
X-238406Y-102261D01*
X-238513Y-102459D01*
X-238605Y-102688D01*
X-238620Y-102718D01*
Y-102749D01*
X-238635Y-102810D01*
X-238651Y-102871D01*
X-238666Y-102963D01*
X-238696Y-103069D01*
X-238712Y-103176D01*
X-238727Y-103314D01*
X-238757Y-103466D01*
X-238773Y-103650D01*
X-238788Y-103833D01*
X-238803Y-104046D01*
Y-104276D01*
X-238819Y-104520D01*
Y-104779D01*
Y-109740D01*
X-241521D01*
Y-99528D01*
X-239032D01*
Y-100932D01*
X-239017Y-100917D01*
X-238971Y-100856D01*
X-238895Y-100780D01*
X-238788Y-100673D01*
X-238666Y-100551D01*
X-238513Y-100413D01*
X-238330Y-100261D01*
X-238132Y-100108D01*
X-237918Y-99955D01*
X-237674Y-99818D01*
X-237414Y-99681D01*
X-237139Y-99558D01*
X-236834Y-99452D01*
X-236529Y-99375D01*
X-236193Y-99314D01*
X-235857Y-99299D01*
X-235689D01*
X-235613Y-99314D01*
X-235506D01*
X-235277Y-99345D01*
X-235018Y-99406D01*
X-234727Y-99467D01*
X-234437Y-99574D01*
X-234163Y-99711D01*
X-234147D01*
X-234132Y-99726D01*
X-234041Y-99788D01*
X-233903Y-99879D01*
X-233735Y-100016D01*
X-233552Y-100184D01*
X-233354Y-100398D01*
X-233155Y-100642D01*
X-232972Y-100932D01*
X-232957Y-100917D01*
X-232941Y-100902D01*
X-232911Y-100856D01*
X-232850Y-100795D01*
X-232712Y-100658D01*
X-232544Y-100474D01*
X-232316Y-100276D01*
X-232071Y-100062D01*
X-231812Y-99879D01*
X-231522Y-99711D01*
X-231507D01*
X-231491Y-99696D01*
X-231445Y-99665D01*
X-231384Y-99650D01*
X-231232Y-99574D01*
X-231018Y-99497D01*
X-230774Y-99436D01*
X-230484Y-99360D01*
X-230178Y-99314D01*
X-229858Y-99299D01*
X-229675D01*
X-229568Y-99314D01*
D02*
G37*
G36*
X-247062D02*
X-246955Y-99330D01*
X-246695Y-99360D01*
X-246406Y-99406D01*
X-246085Y-99497D01*
X-245764Y-99604D01*
X-245459Y-99757D01*
X-245444D01*
X-245429Y-99772D01*
X-245337Y-99848D01*
X-245200Y-99955D01*
X-245016Y-100093D01*
X-244833Y-100291D01*
X-244635Y-100520D01*
X-244452Y-100795D01*
X-244299Y-101100D01*
X-244284Y-101131D01*
X-244268Y-101177D01*
X-244253Y-101222D01*
X-244238Y-101299D01*
X-244207Y-101390D01*
X-244177Y-101482D01*
X-244146Y-101604D01*
X-244131Y-101757D01*
X-244100Y-101909D01*
X-244070Y-102077D01*
X-244055Y-102276D01*
X-244039Y-102474D01*
X-244024Y-102703D01*
X-244009Y-102963D01*
Y-103222D01*
Y-109740D01*
X-246711D01*
Y-103909D01*
Y-103894D01*
Y-103848D01*
Y-103772D01*
Y-103665D01*
X-246726Y-103543D01*
Y-103405D01*
X-246741Y-103085D01*
X-246787Y-102764D01*
X-246833Y-102428D01*
X-246863Y-102291D01*
X-246909Y-102154D01*
X-246955Y-102031D01*
X-247001Y-101940D01*
X-247016Y-101909D01*
X-247077Y-101848D01*
X-247153Y-101757D01*
X-247276Y-101650D01*
X-247444Y-101543D01*
X-247642Y-101451D01*
X-247871Y-101390D01*
X-248146Y-101360D01*
X-248237D01*
X-248344Y-101375D01*
X-248497Y-101406D01*
X-248650Y-101451D01*
X-248833Y-101512D01*
X-249016Y-101589D01*
X-249214Y-101711D01*
X-249230Y-101726D01*
X-249291Y-101772D01*
X-249382Y-101864D01*
X-249489Y-101970D01*
X-249611Y-102108D01*
X-249733Y-102291D01*
X-249840Y-102489D01*
X-249932Y-102734D01*
X-249947Y-102764D01*
Y-102810D01*
X-249962Y-102856D01*
X-249978Y-102932D01*
X-249993Y-103024D01*
X-250023Y-103115D01*
X-250039Y-103237D01*
X-250054Y-103375D01*
X-250084Y-103543D01*
X-250100Y-103711D01*
X-250115Y-103894D01*
X-250130Y-104108D01*
Y-104337D01*
X-250145Y-104581D01*
Y-104840D01*
Y-109740D01*
X-252847D01*
Y-104153D01*
Y-104138D01*
Y-104092D01*
Y-104016D01*
Y-103909D01*
Y-103787D01*
Y-103650D01*
X-252863Y-103344D01*
X-252878Y-103024D01*
X-252909Y-102703D01*
X-252924Y-102566D01*
X-252954Y-102428D01*
X-252970Y-102322D01*
X-253000Y-102230D01*
Y-102215D01*
X-253031Y-102154D01*
X-253061Y-102077D01*
X-253107Y-101986D01*
X-253244Y-101772D01*
X-253336Y-101665D01*
X-253443Y-101573D01*
X-253458Y-101558D01*
X-253504Y-101543D01*
X-253565Y-101512D01*
X-253657Y-101467D01*
X-253779Y-101421D01*
X-253916Y-101390D01*
X-254084Y-101375D01*
X-254267Y-101360D01*
X-254374D01*
X-254496Y-101375D01*
X-254649Y-101406D01*
X-254817Y-101451D01*
X-255000Y-101512D01*
X-255198Y-101589D01*
X-255397Y-101711D01*
X-255412Y-101726D01*
X-255473Y-101772D01*
X-255565Y-101848D01*
X-255672Y-101955D01*
X-255779Y-102093D01*
X-255901Y-102261D01*
X-256007Y-102459D01*
X-256099Y-102688D01*
X-256114Y-102718D01*
Y-102749D01*
X-256130Y-102810D01*
X-256145Y-102871D01*
X-256160Y-102963D01*
X-256191Y-103069D01*
X-256206Y-103176D01*
X-256221Y-103314D01*
X-256252Y-103466D01*
X-256267Y-103650D01*
X-256282Y-103833D01*
X-256297Y-104046D01*
Y-104276D01*
X-256313Y-104520D01*
Y-104779D01*
Y-109740D01*
X-259015D01*
Y-99528D01*
X-256527D01*
Y-100932D01*
X-256511Y-100917D01*
X-256465Y-100856D01*
X-256389Y-100780D01*
X-256282Y-100673D01*
X-256160Y-100551D01*
X-256007Y-100413D01*
X-255824Y-100261D01*
X-255626Y-100108D01*
X-255412Y-99955D01*
X-255168Y-99818D01*
X-254908Y-99681D01*
X-254634Y-99558D01*
X-254328Y-99452D01*
X-254023Y-99375D01*
X-253687Y-99314D01*
X-253351Y-99299D01*
X-253183D01*
X-253107Y-99314D01*
X-253000D01*
X-252771Y-99345D01*
X-252512Y-99406D01*
X-252222Y-99467D01*
X-251932Y-99574D01*
X-251657Y-99711D01*
X-251642D01*
X-251626Y-99726D01*
X-251535Y-99788D01*
X-251397Y-99879D01*
X-251229Y-100016D01*
X-251046Y-100184D01*
X-250848Y-100398D01*
X-250649Y-100642D01*
X-250466Y-100932D01*
X-250451Y-100917D01*
X-250436Y-100902D01*
X-250405Y-100856D01*
X-250344Y-100795D01*
X-250207Y-100658D01*
X-250039Y-100474D01*
X-249810Y-100276D01*
X-249565Y-100062D01*
X-249306Y-99879D01*
X-249016Y-99711D01*
X-249001D01*
X-248985Y-99696D01*
X-248940Y-99665D01*
X-248878Y-99650D01*
X-248726Y-99574D01*
X-248512Y-99497D01*
X-248268Y-99436D01*
X-247978Y-99360D01*
X-247673Y-99314D01*
X-247352Y-99299D01*
X-247169D01*
X-247062Y-99314D01*
D02*
G37*
G36*
X-299651D02*
X-299422Y-99345D01*
X-299178Y-99375D01*
X-298903Y-99436D01*
X-298613Y-99528D01*
X-298338Y-99635D01*
X-298323D01*
X-298308Y-99650D01*
X-298216Y-99696D01*
X-298079Y-99757D01*
X-297926Y-99864D01*
X-297743Y-99971D01*
X-297560Y-100123D01*
X-297377Y-100276D01*
X-297224Y-100459D01*
X-297209Y-100474D01*
X-297163Y-100551D01*
X-297102Y-100642D01*
X-297010Y-100780D01*
X-296919Y-100948D01*
X-296842Y-101146D01*
X-296751Y-101360D01*
X-296690Y-101589D01*
Y-101619D01*
X-296659Y-101711D01*
X-296644Y-101848D01*
X-296613Y-102047D01*
X-296583Y-102306D01*
X-296568Y-102612D01*
X-296537Y-102978D01*
Y-103405D01*
Y-109740D01*
X-299239D01*
Y-104535D01*
Y-104520D01*
Y-104459D01*
Y-104382D01*
Y-104260D01*
Y-104138D01*
X-299254Y-103985D01*
Y-103650D01*
X-299285Y-103283D01*
X-299315Y-102932D01*
X-299331Y-102764D01*
X-299361Y-102627D01*
X-299392Y-102505D01*
X-299422Y-102398D01*
Y-102383D01*
X-299453Y-102322D01*
X-299499Y-102230D01*
X-299560Y-102123D01*
X-299636Y-102001D01*
X-299727Y-101864D01*
X-299850Y-101741D01*
X-299987Y-101635D01*
X-300002Y-101619D01*
X-300048Y-101589D01*
X-300140Y-101543D01*
X-300247Y-101497D01*
X-300384Y-101451D01*
X-300537Y-101406D01*
X-300704Y-101375D01*
X-300903Y-101360D01*
X-301025D01*
X-301147Y-101375D01*
X-301330Y-101406D01*
X-301514Y-101451D01*
X-301727Y-101528D01*
X-301956Y-101619D01*
X-302170Y-101757D01*
X-302201Y-101772D01*
X-302262Y-101833D01*
X-302353Y-101909D01*
X-302475Y-102031D01*
X-302597Y-102169D01*
X-302720Y-102352D01*
X-302826Y-102550D01*
X-302918Y-102780D01*
X-302933Y-102810D01*
Y-102840D01*
X-302948Y-102902D01*
X-302964Y-102978D01*
X-302979Y-103069D01*
X-302994Y-103176D01*
X-303010Y-103299D01*
X-303040Y-103451D01*
X-303055Y-103619D01*
X-303071Y-103818D01*
X-303086Y-104031D01*
X-303101Y-104260D01*
Y-104520D01*
X-303116Y-104810D01*
Y-105115D01*
Y-109740D01*
X-305818D01*
Y-99528D01*
X-303315D01*
Y-101039D01*
X-303300Y-101024D01*
X-303254Y-100963D01*
X-303178Y-100871D01*
X-303071Y-100764D01*
X-302948Y-100642D01*
X-302781Y-100490D01*
X-302613Y-100337D01*
X-302399Y-100169D01*
X-302170Y-100001D01*
X-301910Y-99848D01*
X-301636Y-99696D01*
X-301346Y-99574D01*
X-301025Y-99452D01*
X-300689Y-99375D01*
X-300338Y-99314D01*
X-299972Y-99299D01*
X-299819D01*
X-299651Y-99314D01*
D02*
G37*
G36*
X-267609Y-102230D02*
X-270311D01*
Y-99528D01*
X-267609D01*
Y-102230D01*
D02*
G37*
G36*
X-277730Y-99314D02*
X-277547D01*
X-277348Y-99330D01*
X-277135Y-99360D01*
X-276891Y-99391D01*
X-276387Y-99467D01*
X-275883Y-99589D01*
X-275623Y-99665D01*
X-275394Y-99757D01*
X-275166Y-99864D01*
X-274967Y-99986D01*
X-274952D01*
X-274921Y-100016D01*
X-274876Y-100062D01*
X-274799Y-100108D01*
X-274723Y-100184D01*
X-274616Y-100276D01*
X-274524Y-100383D01*
X-274402Y-100490D01*
X-274295Y-100627D01*
X-274173Y-100780D01*
X-274051Y-100948D01*
X-273929Y-101131D01*
X-273822Y-101314D01*
X-273715Y-101528D01*
X-273547Y-102001D01*
X-276097Y-102474D01*
Y-102444D01*
X-276127Y-102383D01*
X-276173Y-102276D01*
X-276234Y-102138D01*
X-276326Y-101986D01*
X-276432Y-101833D01*
X-276570Y-101696D01*
X-276723Y-101558D01*
X-276738Y-101543D01*
X-276814Y-101512D01*
X-276906Y-101451D01*
X-277058Y-101390D01*
X-277242Y-101344D01*
X-277455Y-101284D01*
X-277730Y-101253D01*
X-278020Y-101238D01*
X-278188D01*
X-278371Y-101253D01*
X-278600Y-101268D01*
X-278845Y-101314D01*
X-279104Y-101360D01*
X-279333Y-101436D01*
X-279531Y-101543D01*
X-279547Y-101558D01*
X-279577Y-101573D01*
X-279623Y-101635D01*
X-279684Y-101696D01*
X-279745Y-101772D01*
X-279791Y-101864D01*
X-279821Y-101970D01*
X-279837Y-102093D01*
Y-102108D01*
Y-102138D01*
X-279821Y-102199D01*
X-279806Y-102261D01*
X-279776Y-102337D01*
X-279730Y-102413D01*
X-279669Y-102505D01*
X-279577Y-102581D01*
X-279562Y-102596D01*
X-279531Y-102612D01*
X-279486Y-102627D01*
X-279425Y-102657D01*
X-279348Y-102688D01*
X-279241Y-102734D01*
X-279119Y-102780D01*
X-278982Y-102825D01*
X-278799Y-102886D01*
X-278600Y-102947D01*
X-278356Y-103024D01*
X-278097Y-103085D01*
X-277791Y-103176D01*
X-277440Y-103253D01*
X-277058Y-103344D01*
X-277028D01*
X-276967Y-103360D01*
X-276860Y-103390D01*
X-276707Y-103436D01*
X-276539Y-103482D01*
X-276326Y-103543D01*
X-276112Y-103604D01*
X-275868Y-103680D01*
X-275379Y-103848D01*
X-274876Y-104062D01*
X-274646Y-104169D01*
X-274433Y-104291D01*
X-274219Y-104413D01*
X-274051Y-104550D01*
X-274036Y-104565D01*
X-274021Y-104581D01*
X-273975Y-104627D01*
X-273914Y-104688D01*
X-273853Y-104749D01*
X-273776Y-104840D01*
X-273700Y-104947D01*
X-273624Y-105069D01*
X-273471Y-105359D01*
X-273334Y-105695D01*
X-273227Y-106092D01*
X-273211Y-106321D01*
X-273196Y-106550D01*
Y-106565D01*
Y-106611D01*
Y-106687D01*
X-273211Y-106779D01*
X-273227Y-106901D01*
X-273257Y-107054D01*
X-273288Y-107206D01*
X-273349Y-107374D01*
X-273410Y-107557D01*
X-273486Y-107756D01*
X-273578Y-107954D01*
X-273685Y-108153D01*
X-273822Y-108367D01*
X-273990Y-108565D01*
X-274158Y-108764D01*
X-274372Y-108962D01*
X-274387Y-108977D01*
X-274433Y-109008D01*
X-274494Y-109054D01*
X-274585Y-109115D01*
X-274708Y-109191D01*
X-274860Y-109283D01*
X-275043Y-109374D01*
X-275242Y-109466D01*
X-275471Y-109557D01*
X-275730Y-109649D01*
X-276020Y-109740D01*
X-276326Y-109817D01*
X-276661Y-109878D01*
X-277028Y-109924D01*
X-277425Y-109954D01*
X-277837Y-109970D01*
X-278035D01*
X-278188Y-109954D01*
X-278356Y-109939D01*
X-278570Y-109924D01*
X-278783Y-109893D01*
X-279028Y-109863D01*
X-279562Y-109771D01*
X-280112Y-109618D01*
X-280386Y-109511D01*
X-280661Y-109405D01*
X-280905Y-109283D01*
X-281150Y-109130D01*
X-281165Y-109115D01*
X-281195Y-109084D01*
X-281256Y-109038D01*
X-281348Y-108977D01*
X-281440Y-108886D01*
X-281546Y-108794D01*
X-281669Y-108672D01*
X-281791Y-108534D01*
X-281928Y-108367D01*
X-282066Y-108199D01*
X-282188Y-108015D01*
X-282325Y-107802D01*
X-282447Y-107588D01*
X-282554Y-107359D01*
X-282646Y-107100D01*
X-282722Y-106840D01*
X-280020Y-106428D01*
Y-106443D01*
X-280005Y-106458D01*
X-279989Y-106550D01*
X-279944Y-106703D01*
X-279867Y-106871D01*
X-279776Y-107069D01*
X-279653Y-107268D01*
X-279516Y-107451D01*
X-279333Y-107619D01*
X-279302Y-107634D01*
X-279241Y-107680D01*
X-279119Y-107741D01*
X-278951Y-107817D01*
X-278738Y-107893D01*
X-278478Y-107954D01*
X-278188Y-108000D01*
X-277852Y-108015D01*
X-277684D01*
X-277593Y-108000D01*
X-277486D01*
X-277257Y-107970D01*
X-276997Y-107924D01*
X-276738Y-107848D01*
X-276494Y-107756D01*
X-276280Y-107634D01*
X-276265Y-107619D01*
X-276219Y-107588D01*
X-276158Y-107527D01*
X-276097Y-107451D01*
X-276036Y-107344D01*
X-275975Y-107222D01*
X-275929Y-107084D01*
X-275914Y-106916D01*
Y-106901D01*
Y-106871D01*
X-275929Y-106810D01*
X-275944Y-106733D01*
X-275990Y-106581D01*
X-276051Y-106489D01*
X-276112Y-106413D01*
X-276127Y-106397D01*
X-276158Y-106382D01*
X-276219Y-106336D01*
X-276295Y-106291D01*
X-276417Y-106229D01*
X-276570Y-106168D01*
X-276768Y-106107D01*
X-277013Y-106046D01*
X-277028D01*
X-277043Y-106031D01*
X-277089D01*
X-277150Y-106016D01*
X-277318Y-105970D01*
X-277532Y-105924D01*
X-277791Y-105863D01*
X-278081Y-105787D01*
X-278402Y-105710D01*
X-278753Y-105619D01*
X-279440Y-105405D01*
X-279791Y-105298D01*
X-280127Y-105191D01*
X-280432Y-105069D01*
X-280707Y-104962D01*
X-280951Y-104840D01*
X-281134Y-104733D01*
X-281150Y-104718D01*
X-281180Y-104688D01*
X-281241Y-104642D01*
X-281318Y-104581D01*
X-281409Y-104504D01*
X-281516Y-104398D01*
X-281623Y-104276D01*
X-281730Y-104138D01*
X-281852Y-103985D01*
X-281959Y-103818D01*
X-282066Y-103619D01*
X-282157Y-103421D01*
X-282233Y-103192D01*
X-282295Y-102963D01*
X-282325Y-102703D01*
X-282340Y-102444D01*
Y-102428D01*
Y-102383D01*
Y-102322D01*
X-282325Y-102215D01*
X-282310Y-102108D01*
X-282279Y-101970D01*
X-282249Y-101833D01*
X-282203Y-101665D01*
X-282081Y-101314D01*
X-282004Y-101131D01*
X-281898Y-100948D01*
X-281775Y-100749D01*
X-281638Y-100566D01*
X-281485Y-100383D01*
X-281302Y-100215D01*
X-281287Y-100200D01*
X-281256Y-100169D01*
X-281195Y-100123D01*
X-281104Y-100077D01*
X-280997Y-100001D01*
X-280860Y-99925D01*
X-280692Y-99848D01*
X-280508Y-99757D01*
X-280295Y-99665D01*
X-280050Y-99589D01*
X-279791Y-99513D01*
X-279501Y-99436D01*
X-279180Y-99391D01*
X-278829Y-99345D01*
X-278463Y-99314D01*
X-278066Y-99299D01*
X-277868D01*
X-277730Y-99314D01*
D02*
G37*
G36*
X-308780Y-103069D02*
Y-103100D01*
Y-103176D01*
Y-103314D01*
Y-103482D01*
Y-103695D01*
X-308795Y-103924D01*
Y-104184D01*
X-308811Y-104474D01*
X-308841Y-105054D01*
X-308887Y-105649D01*
X-308917Y-105939D01*
X-308948Y-106199D01*
X-308978Y-106443D01*
X-309024Y-106657D01*
Y-106672D01*
X-309039Y-106703D01*
X-309055Y-106764D01*
X-309070Y-106825D01*
X-309100Y-106916D01*
X-309131Y-107023D01*
X-309223Y-107268D01*
X-309329Y-107557D01*
X-309482Y-107848D01*
X-309665Y-108138D01*
X-309879Y-108428D01*
Y-108443D01*
X-309910Y-108458D01*
X-309986Y-108550D01*
X-310123Y-108672D01*
X-310306Y-108840D01*
X-310551Y-109023D01*
X-310826Y-109206D01*
X-311161Y-109405D01*
X-311528Y-109573D01*
X-311543D01*
X-311574Y-109588D01*
X-311635Y-109618D01*
X-311711Y-109634D01*
X-311818Y-109664D01*
X-311940Y-109710D01*
X-312092Y-109740D01*
X-312260Y-109786D01*
X-312444Y-109832D01*
X-312642Y-109863D01*
X-312871Y-109893D01*
X-313100Y-109939D01*
X-313360Y-109954D01*
X-313634Y-109985D01*
X-313924Y-110000D01*
X-314428D01*
X-314566Y-109985D01*
X-314733D01*
X-314917Y-109970D01*
X-315130Y-109954D01*
X-315359Y-109939D01*
X-315863Y-109893D01*
X-316367Y-109802D01*
X-316855Y-109695D01*
X-317084Y-109618D01*
X-317283Y-109542D01*
X-317298D01*
X-317328Y-109527D01*
X-317390Y-109496D01*
X-317451Y-109451D01*
X-317542Y-109405D01*
X-317649Y-109359D01*
X-317878Y-109206D01*
X-318138Y-109038D01*
X-318412Y-108840D01*
X-318687Y-108596D01*
X-318931Y-108336D01*
Y-108321D01*
X-318962Y-108306D01*
X-318993Y-108260D01*
X-319023Y-108199D01*
X-319130Y-108061D01*
X-319252Y-107863D01*
X-319389Y-107619D01*
X-319527Y-107359D01*
X-319634Y-107069D01*
X-319725Y-106764D01*
Y-106749D01*
X-319741Y-106703D01*
X-319756Y-106642D01*
X-319771Y-106535D01*
X-319786Y-106413D01*
X-319817Y-106260D01*
X-319832Y-106077D01*
X-319863Y-105863D01*
X-319893Y-105634D01*
X-319908Y-105359D01*
X-319939Y-105069D01*
X-319954Y-104749D01*
X-319970Y-104398D01*
X-319985Y-104031D01*
X-320000Y-103619D01*
Y-103192D01*
Y-95651D01*
X-317161D01*
Y-103299D01*
Y-103314D01*
Y-103375D01*
Y-103466D01*
Y-103588D01*
Y-103741D01*
Y-103909D01*
X-317145Y-104092D01*
Y-104276D01*
Y-104688D01*
X-317115Y-105069D01*
Y-105253D01*
X-317100Y-105405D01*
X-317084Y-105542D01*
X-317069Y-105665D01*
Y-105680D01*
X-317054Y-105695D01*
Y-105741D01*
X-317023Y-105802D01*
X-316977Y-105970D01*
X-316886Y-106168D01*
X-316779Y-106382D01*
X-316626Y-106611D01*
X-316428Y-106840D01*
X-316199Y-107054D01*
X-316184D01*
X-316168Y-107069D01*
X-316123Y-107100D01*
X-316077Y-107130D01*
X-315924Y-107222D01*
X-315710Y-107313D01*
X-315436Y-107405D01*
X-315115Y-107497D01*
X-314749Y-107557D01*
X-314321Y-107573D01*
X-314199D01*
X-314123Y-107557D01*
X-314016D01*
X-313909Y-107542D01*
X-313634Y-107512D01*
X-313344Y-107451D01*
X-313039Y-107359D01*
X-312749Y-107252D01*
X-312489Y-107084D01*
X-312459Y-107069D01*
X-312398Y-106993D01*
X-312291Y-106886D01*
X-312169Y-106749D01*
X-312047Y-106581D01*
X-311925Y-106367D01*
X-311818Y-106138D01*
X-311757Y-105878D01*
Y-105863D01*
Y-105848D01*
X-311741Y-105802D01*
Y-105741D01*
X-311726Y-105649D01*
X-311711Y-105558D01*
X-311696Y-105436D01*
X-311680Y-105298D01*
Y-105146D01*
X-311665Y-104962D01*
X-311650Y-104764D01*
X-311635Y-104550D01*
Y-104306D01*
X-311619Y-104046D01*
Y-103772D01*
Y-103466D01*
Y-95651D01*
X-308780D01*
Y-103069D01*
D02*
G37*
G36*
X-267609Y-109740D02*
X-270311D01*
Y-107038D01*
X-267609D01*
Y-109740D01*
D02*
G37*
G36*
X-291072D02*
X-293774D01*
Y-99528D01*
X-291072D01*
Y-109740D01*
D02*
G37*
G36*
X-285485Y-99528D02*
X-283638D01*
Y-101680D01*
X-285485D01*
Y-105802D01*
Y-105817D01*
Y-105863D01*
Y-105924D01*
Y-106000D01*
Y-106092D01*
Y-106214D01*
Y-106458D01*
X-285470Y-106703D01*
Y-106947D01*
X-285454Y-107054D01*
Y-107145D01*
X-285439Y-107222D01*
Y-107268D01*
Y-107283D01*
X-285424Y-107298D01*
X-285393Y-107390D01*
X-285317Y-107497D01*
X-285210Y-107603D01*
X-285195D01*
X-285180Y-107619D01*
X-285134Y-107634D01*
X-285073Y-107664D01*
X-284935Y-107710D01*
X-284752Y-107725D01*
X-284676D01*
X-284599Y-107710D01*
X-284477Y-107695D01*
X-284325Y-107664D01*
X-284126Y-107619D01*
X-283913Y-107557D01*
X-283668Y-107481D01*
X-283424Y-109573D01*
X-283439D01*
X-283470Y-109588D01*
X-283516Y-109603D01*
X-283592Y-109634D01*
X-283684Y-109664D01*
X-283790Y-109695D01*
X-283913Y-109740D01*
X-284050Y-109771D01*
X-284355Y-109847D01*
X-284722Y-109908D01*
X-285134Y-109954D01*
X-285561Y-109970D01*
X-285683D01*
X-285821Y-109954D01*
X-286004Y-109939D01*
X-286202Y-109908D01*
X-286416Y-109863D01*
X-286645Y-109802D01*
X-286874Y-109725D01*
X-286905Y-109710D01*
X-286966Y-109679D01*
X-287073Y-109634D01*
X-287195Y-109557D01*
X-287332Y-109466D01*
X-287485Y-109359D01*
X-287607Y-109237D01*
X-287729Y-109099D01*
X-287744Y-109084D01*
X-287775Y-109023D01*
X-287820Y-108931D01*
X-287882Y-108825D01*
X-287943Y-108672D01*
X-288004Y-108489D01*
X-288065Y-108275D01*
X-288111Y-108046D01*
Y-108015D01*
X-288126Y-107954D01*
Y-107893D01*
X-288141Y-107817D01*
Y-107725D01*
Y-107634D01*
X-288156Y-107512D01*
Y-107374D01*
X-288172Y-107222D01*
Y-107038D01*
X-288187Y-106840D01*
Y-106626D01*
Y-106397D01*
Y-106138D01*
Y-101680D01*
X-289423D01*
Y-99528D01*
X-288187D01*
Y-97498D01*
X-285485Y-95910D01*
Y-99528D01*
D02*
G37*
%LPC*%
G36*
X-289561Y-124840D02*
X-289591Y-124856D01*
X-289668Y-124871D01*
X-289790Y-124917D01*
X-289973Y-124962D01*
X-290202Y-125023D01*
X-290492Y-125100D01*
X-290828Y-125176D01*
X-291225Y-125268D01*
X-291240D01*
X-291271Y-125283D01*
X-291332D01*
X-291408Y-125314D01*
X-291591Y-125359D01*
X-291820Y-125405D01*
X-292064Y-125481D01*
X-292309Y-125558D01*
X-292522Y-125634D01*
X-292614Y-125680D01*
X-292690Y-125726D01*
X-292705Y-125741D01*
X-292766Y-125787D01*
X-292858Y-125878D01*
X-292950Y-125985D01*
X-293041Y-126123D01*
X-293133Y-126291D01*
X-293194Y-126474D01*
X-293209Y-126672D01*
Y-126703D01*
Y-126764D01*
X-293194Y-126871D01*
X-293163Y-127008D01*
X-293102Y-127161D01*
X-293041Y-127329D01*
X-292934Y-127481D01*
X-292797Y-127649D01*
X-292782Y-127664D01*
X-292721Y-127710D01*
X-292629Y-127787D01*
X-292507Y-127848D01*
X-292339Y-127924D01*
X-292156Y-128000D01*
X-291942Y-128046D01*
X-291713Y-128061D01*
X-291683D01*
X-291591Y-128046D01*
X-291454Y-128031D01*
X-291271Y-128000D01*
X-291057Y-127939D01*
X-290813Y-127863D01*
X-290568Y-127741D01*
X-290324Y-127588D01*
X-290309Y-127573D01*
X-290248Y-127527D01*
X-290156Y-127451D01*
X-290065Y-127344D01*
X-289942Y-127206D01*
X-289836Y-127054D01*
X-289744Y-126886D01*
X-289668Y-126703D01*
Y-126687D01*
X-289652Y-126626D01*
X-289637Y-126535D01*
X-289607Y-126413D01*
X-289591Y-126229D01*
X-289576Y-126000D01*
X-289561Y-125726D01*
Y-125390D01*
Y-124840D01*
D02*
G37*
G36*
X-274753Y-121360D02*
X-274845D01*
X-274906Y-121375D01*
X-275059Y-121390D01*
X-275272Y-121436D01*
X-275501Y-121512D01*
X-275746Y-121635D01*
X-275975Y-121803D01*
X-276097Y-121894D01*
X-276204Y-122016D01*
X-276234Y-122047D01*
X-276295Y-122138D01*
X-276387Y-122276D01*
X-276494Y-122474D01*
X-276600Y-122718D01*
X-276692Y-123024D01*
X-276753Y-123359D01*
X-276768Y-123756D01*
X-272738D01*
Y-123741D01*
Y-123711D01*
Y-123650D01*
X-272754Y-123558D01*
X-272769Y-123466D01*
X-272784Y-123359D01*
X-272830Y-123100D01*
X-272906Y-122810D01*
X-273013Y-122520D01*
X-273151Y-122230D01*
X-273349Y-121986D01*
X-273379Y-121955D01*
X-273456Y-121894D01*
X-273578Y-121787D01*
X-273746Y-121665D01*
X-273944Y-121558D01*
X-274188Y-121451D01*
X-274463Y-121390D01*
X-274753Y-121360D01*
D02*
G37*
%LPD*%
D52*
X502960Y824920D02*
X518200Y830000D01*
X502960Y835080D02*
X518200Y830000D01*
X0D02*
X15240Y835080D01*
X0Y830000D02*
X15240Y824920D01*
X271796Y830000D02*
X518200D01*
X0D02*
X238276D01*
X518200Y35540D02*
Y832540D01*
X0Y703540D02*
Y832540D01*
X0Y810000D02*
X15240Y815080D01*
X0Y810000D02*
X15240Y804920D01*
X377360D02*
X392600Y810000D01*
X377360Y815080D02*
X392600Y810000D01*
X0D02*
X175476D01*
X208996D02*
X392600D01*
X0Y702540D02*
Y812540D01*
X392600Y33040D02*
Y812540D01*
X0Y770000D02*
X15240Y775080D01*
X0Y770000D02*
X15240Y764920D01*
X281360D02*
X296600Y770000D01*
X281360Y775080D02*
X296600Y770000D01*
X0D02*
X127476D01*
X160996D02*
X296600D01*
X0Y703540D02*
Y772540D01*
X296600Y34040D02*
Y772540D01*
X870000Y525300D02*
X875080Y510060D01*
X864920D02*
X870000Y525300D01*
X864920Y15240D02*
X870000Y0D01*
X875080Y15240D01*
X870000Y275346D02*
Y525300D01*
Y0D02*
Y241826D01*
X690040Y525300D02*
X872540D01*
X703540Y0D02*
X872540D01*
X820000Y292800D02*
X825080Y277560D01*
X814920D02*
X820000Y292800D01*
X814920Y15240D02*
X820000Y0D01*
X825080Y15240D01*
X820000Y159096D02*
Y292800D01*
Y0D02*
Y125576D01*
X688040Y292800D02*
X822540D01*
X703540Y0D02*
X822540D01*
X760000Y171000D02*
X765080Y155760D01*
X754920D02*
X760000Y171000D01*
X754920Y15240D02*
X760000Y0D01*
X765080Y15240D01*
X760000Y96926D02*
Y171000D01*
Y0D02*
Y65946D01*
X665540Y171000D02*
X762540D01*
X703540Y0D02*
X762540D01*
X0Y790000D02*
X15240Y795080D01*
X0Y790000D02*
X15240Y784920D01*
X306960D02*
X322200Y790000D01*
X306960Y795080D02*
X322200Y790000D01*
X0D02*
X140276D01*
X173796D02*
X322200D01*
X0Y703540D02*
Y792540D01*
X322200Y685540D02*
Y792540D01*
X87960Y744920D02*
X103200Y750000D01*
X87960Y755080D02*
X103200Y750000D01*
X0D02*
X15240Y755080D01*
X0Y750000D02*
X15240Y744920D01*
X63026Y750000D02*
X103200D01*
X0D02*
X32046D01*
X103200Y685540D02*
Y752540D01*
X0Y703540D02*
Y752540D01*
Y850000D02*
X15240Y855080D01*
X0Y850000D02*
X15240Y844920D01*
X684760D02*
X700000Y850000D01*
X684760Y855080D02*
X700000Y850000D01*
X0D02*
X329176D01*
X362696D02*
X700000D01*
X0Y703540D02*
Y852540D01*
X700000Y703540D02*
Y852540D01*
X-365080Y15240D02*
X-360000Y0D01*
X-354920Y15240D01*
X-360000Y700000D02*
X-354920Y684760D01*
X-365080D02*
X-360000Y700000D01*
Y0D02*
Y329176D01*
Y362696D02*
Y700000D01*
X-362540Y0D02*
X-3540D01*
X-362540Y700000D02*
X-3540D01*
X-270000Y542500D02*
X-264920Y527260D01*
X-275080D02*
X-270000Y542500D01*
X-275080Y15240D02*
X-270000Y0D01*
X-264920Y15240D01*
X-270000Y283946D02*
Y542500D01*
Y0D02*
Y250426D01*
X-272540Y542500D02*
X13960D01*
X-272540Y0D02*
X-3540D01*
X-220000Y399000D02*
X-214920Y383760D01*
X-225080D02*
X-220000Y399000D01*
X-225080Y18240D02*
X-220000Y3000D01*
X-214920Y18240D01*
X-220000Y213696D02*
Y399000D01*
Y3000D02*
Y180176D01*
X-222540Y399000D02*
X10760D01*
X-222540Y3000D02*
X3000D01*
X-150000Y324800D02*
X-144920Y309560D01*
X-155080D02*
X-150000Y324800D01*
X-155080Y18240D02*
X-150000Y3000D01*
X-144920Y18240D01*
X-150000Y176596D02*
Y324800D01*
Y3000D02*
Y143076D01*
X-152540Y324800D02*
X12460D01*
X-152540Y3000D02*
X3000D01*
X-45080Y55240D02*
X-40000Y40000D01*
X-34920Y55240D01*
X-40000Y0D02*
X-34920Y-15240D01*
X-45080D02*
X-40000Y0D01*
Y40000D02*
Y65400D01*
Y-25400D02*
Y0D01*
X-42540D02*
X-3540D01*
X-42540Y40000D02*
X460D01*
X-90000Y208300D02*
X-84920Y193060D01*
X-95080D02*
X-90000Y208300D01*
X-95080Y15240D02*
X-90000Y0D01*
X-84920Y15240D01*
X-90000Y114307D02*
Y208300D01*
Y0D02*
Y85865D01*
X-92540Y208300D02*
X12460D01*
X-92540Y0D02*
X-3540D01*
X25000Y710000D02*
X40240Y715080D01*
X25000Y710000D02*
X40240Y704920D01*
X-15240D02*
X0Y710000D01*
X-15240Y715080D02*
X0Y710000D01*
X25000D02*
X50400D01*
X-25400D02*
X0D01*
Y3540D02*
Y712540D01*
X25000Y119240D02*
Y712540D01*
X40000Y730000D02*
X55240Y735080D01*
X40000Y730000D02*
X55240Y724920D01*
X-15240D02*
X0Y730000D01*
X-15240Y735080D02*
X0Y730000D01*
X40000D02*
X65400D01*
X-25400D02*
X0D01*
Y3540D02*
Y732540D01*
X40000Y79540D02*
Y732540D01*
D53*
X252497Y836094D02*
X242340D01*
Y828476D01*
X247418Y831015D01*
X249958D01*
X252497Y828476D01*
Y823398D01*
X249958Y820859D01*
X244879D01*
X242340Y823398D01*
X267732Y820859D02*
X257575D01*
X267732Y831015D01*
Y833554D01*
X265193Y836094D01*
X260114D01*
X257575Y833554D01*
X179540Y813554D02*
X182079Y816094D01*
X187158D01*
X189697Y813554D01*
Y811015D01*
X187158Y808476D01*
X184618D01*
X187158D01*
X189697Y805937D01*
Y803398D01*
X187158Y800859D01*
X182079D01*
X179540Y803398D01*
X194775D02*
X197314Y800859D01*
X202393D01*
X204932Y803398D01*
Y813554D01*
X202393Y816094D01*
X197314D01*
X194775Y813554D01*
Y811015D01*
X197314Y808476D01*
X204932D01*
X131540Y773554D02*
X134079Y776094D01*
X139158D01*
X141697Y773554D01*
Y771015D01*
X139158Y768476D01*
X136618D01*
X139158D01*
X141697Y765937D01*
Y763398D01*
X139158Y760859D01*
X134079D01*
X131540Y763398D01*
X146775Y773554D02*
X149314Y776094D01*
X154393D01*
X156932Y773554D01*
Y763398D01*
X154393Y760859D01*
X149314D01*
X146775Y763398D01*
Y773554D01*
X863906Y256047D02*
Y245890D01*
X871524D01*
X868985Y250968D01*
Y253508D01*
X871524Y256047D01*
X876602D01*
X879141Y253508D01*
Y248429D01*
X876602Y245890D01*
X866446Y261125D02*
X863906Y263664D01*
Y268743D01*
X866446Y271282D01*
X868985D01*
X871524Y268743D01*
Y266203D01*
Y268743D01*
X874063Y271282D01*
X876602D01*
X879141Y268743D01*
Y263664D01*
X876602Y261125D01*
X829141Y139797D02*
Y129640D01*
X818985Y139797D01*
X816446D01*
X813906Y137258D01*
Y132179D01*
X816446Y129640D01*
X826602Y144875D02*
X829141Y147414D01*
Y152493D01*
X826602Y155032D01*
X816446D01*
X813906Y152493D01*
Y147414D01*
X816446Y144875D01*
X818985D01*
X821524Y147414D01*
Y155032D01*
X769141Y70010D02*
Y75088D01*
Y72549D01*
X753906D01*
X756446Y70010D01*
X753906Y82706D02*
Y92862D01*
X756446D01*
X766602Y82706D01*
X769141D01*
X144340Y793554D02*
X146879Y796094D01*
X151958D01*
X154497Y793554D01*
Y791015D01*
X151958Y788476D01*
X149418D01*
X151958D01*
X154497Y785937D01*
Y783398D01*
X151958Y780859D01*
X146879D01*
X144340Y783398D01*
X169732Y780859D02*
X159575D01*
X169732Y791015D01*
Y793554D01*
X167193Y796094D01*
X162114D01*
X159575Y793554D01*
X36110Y740859D02*
X41188D01*
X38649D01*
Y756094D01*
X36110Y753554D01*
X48806D02*
X51345Y756094D01*
X56423D01*
X58962Y753554D01*
Y743398D01*
X56423Y740859D01*
X51345D01*
X48806Y743398D01*
Y753554D01*
X333240Y856094D02*
X343397D01*
Y853554D01*
X333240Y843398D01*
Y840859D01*
X348475Y853554D02*
X351014Y856094D01*
X356093D01*
X358632Y853554D01*
Y843398D01*
X356093Y840859D01*
X351014D01*
X348475Y843398D01*
Y853554D01*
X-366093Y333240D02*
Y343397D01*
X-363554D01*
X-353398Y333240D01*
X-350858D01*
X-363554Y348475D02*
X-366093Y351014D01*
Y356093D01*
X-363554Y358632D01*
X-353398D01*
X-350858Y356093D01*
Y351014D01*
X-353398Y348475D01*
X-363554D01*
X-276094Y264647D02*
Y254490D01*
X-268476D01*
X-271015Y259568D01*
Y262108D01*
X-268476Y264647D01*
X-263398D01*
X-260858Y262108D01*
Y257029D01*
X-263398Y254490D01*
X-260858Y277343D02*
X-276094D01*
X-268476Y269725D01*
Y279882D01*
X-210858Y191858D02*
X-226094D01*
X-218476Y184240D01*
Y194397D01*
X-223554Y199475D02*
X-226094Y202014D01*
Y207093D01*
X-223554Y209632D01*
X-213398D01*
X-210858Y207093D01*
Y202014D01*
X-213398Y199475D01*
X-223554D01*
X-153554Y147140D02*
X-156094Y149679D01*
Y154758D01*
X-153554Y157297D01*
X-151015D01*
X-148476Y154758D01*
Y152218D01*
Y154758D01*
X-145937Y157297D01*
X-143398D01*
X-140858Y154758D01*
Y149679D01*
X-143398Y147140D01*
X-140858Y172532D02*
Y162375D01*
X-151015Y172532D01*
X-153554D01*
X-156094Y169993D01*
Y164914D01*
X-153554Y162375D01*
X-30859Y-33527D02*
X-46094D01*
X-38476Y-41145D01*
Y-30988D01*
X-80858Y100086D02*
Y89929D01*
X-91015Y100086D01*
X-93554D01*
X-96094Y97547D01*
Y92469D01*
X-93554Y89929D01*
X-80858Y105164D02*
Y110243D01*
Y107704D01*
X-96094D01*
X-93554Y105164D01*
X-41145Y713554D02*
X-38605Y716094D01*
X-33527D01*
X-30988Y713554D01*
Y711015D01*
X-33527Y708476D01*
X-36066D01*
X-33527D01*
X-30988Y705937D01*
Y703398D01*
X-33527Y700859D01*
X-38605D01*
X-41145Y703398D01*
X-33527Y720859D02*
Y736094D01*
X-41145Y728476D01*
X-30988D01*
M02*
