M48
;Layer_Color=9474304
;FILE_FORMAT=4:4
METRIC,LZ
;TYPE=PLATED
T01F00S00C0.3000
T02F00S00C0.9100
T03F00S00C1.0000
T04F00S00C1.1000
T05F00S00C1.2000
T06F00S00C3.2000
%
T01
X0047Y00099
X00549Y00122
Y00129
X00583Y0009
X00576Y00081
X00501Y00188
X00491Y00245
X00479Y00278
X00613Y00265
Y00257
X00279Y00197
Y00187
X0012525Y0021025
X00131Y00216
X00119Y00279
X00007Y00282
Y0029
Y00273
X00054Y00214
X00007Y00298
X00086Y00329
X0008Y00373
X00058Y00428
X00074Y0046
X00137Y00443
X00148
X00139Y00413
X00122Y0041
X00197Y00455
X00202Y0046
X00225Y00435
X0025Y00445
X00241Y00393
X00326Y00394
X00323Y00416
X0033Y00461
X00381
X00383Y00379
X00366Y00371
X00353Y00352
X00359Y00326995
X00371Y00315
X00379Y00304
X00179Y00306
X0017
X00162
X00011Y00443
X00115191Y00635191
X00243579Y00558913
X00337Y00559
X00307Y00511
X00312Y0065
X00396Y005
X00408Y00495
X00449Y00444
X00498959Y004775
X00476Y00552
X00591Y00553
X00592Y00566
X0058Y00581
X00574Y00637
X00596
X00617Y00617
X00647Y00602
X005945Y004465
X00602Y00439
X00639Y00346
X00656Y00338
X00691Y00324
X00544Y00311
X00531
X0052
X00479Y00298
X00424
T02
X000213Y00399
X000467
T03
X005645Y002395
X006095
Y003045
X005645
T04
X00418Y00022
Y000474
X004434
Y00022
X004688
Y000474
X005182Y00023
X005436
X00569
X005944
X006516Y00242
X00677
Y002674
Y002928
X006516
Y002674
X003926Y000474
Y00022
X003474Y00023
X00322
X002966
X00025Y001067
Y001321
Y001575
Y001829
Y002083
Y002486
Y00274
X0008Y00274
Y002486
Y002994
X00025Y002994
Y003248
Y004663
Y004917
X000504
Y004663
Y005171
X00025
Y005425
X000504
X001032Y00673
X001286
X00154
X001794
X002048
X002302
X002556
X00281
X003222Y00673
X003476
X00373
X003984
X004238
X004492
X004746
X005
X005254
X005508
X005762
X006016
X006775Y005253
Y004999
Y004745
Y004491
Y004237
Y003983
Y003729
Y003475
T05
X00604Y00121
X00599Y00146
X00604Y00171
X00654
X00659Y00146
X00654Y00121
T06
X0066Y0004
X0004
Y0066
X0066
M30
